<svg width="20" height="16" viewBox="0 0 20 16" fill="none" xmlns="http://www.w3.org/2000/svg">
<path d="M9.5 14.3193V4.50775C8.77817 3.99225 7.98267 3.60567 7.1135 3.348C6.24417 3.09033 5.373 2.9615 4.5 2.9615C3.9 2.9615 3.37467 2.99742 2.924 3.06925C2.47333 3.14108 1.973 3.27442 1.423 3.46925C1.26917 3.52058 1.16025 3.59433 1.09625 3.6905C1.03208 3.7865 1 3.89225 1 4.00775V13.023C1 13.2025 1.06408 13.3339 1.19225 13.4173C1.32042 13.5006 1.4615 13.5103 1.6155 13.4462C1.98083 13.3231 2.40292 13.2243 2.88175 13.15C3.36058 13.0757 3.9 13.0385 4.5 13.0385C5.373 13.0385 6.222 13.1388 7.047 13.3395C7.872 13.5402 8.68967 13.8668 9.5 14.3193ZM10 15.7693C9.18717 15.2128 8.31408 14.7852 7.38075 14.4865C6.44742 14.1878 5.48717 14.0385 4.5 14.0385C3.9795 14.0385 3.46825 14.0821 2.96625 14.1693C2.46442 14.2564 1.97567 14.3962 1.5 14.5885C1.13717 14.7333 0.7965 14.6898 0.478 14.4578C0.159333 14.2257 0 13.9052 0 13.4962V3.83075C0 3.58325 0.0650833 3.35375 0.19525 3.14225C0.325417 2.93075 0.50775 2.78333 0.74225 2.7C1.32942 2.441 1.94033 2.25317 2.575 2.1365C3.20967 2.01983 3.85133 1.9615 4.5 1.9615C5.59233 1.9615 6.56217 2.1 7.4095 2.377C8.257 2.65383 9.12308 3.06467 10.0078 3.6095C10.1654 3.69683 10.2868 3.8135 10.372 3.9595C10.4573 4.10567 10.5 4.27433 10.5 4.4655V14.3193C11.3103 13.8668 12.128 13.5402 12.953 13.3395C13.778 13.1388 14.627 13.0385 15.5 13.0385C16.1 13.0385 16.6394 13.0757 17.1182 13.15C17.5971 13.2243 18.0192 13.3231 18.3845 13.4462C18.5385 13.5103 18.6796 13.5006 18.8078 13.4173C18.9359 13.3339 19 13.2025 19 13.023V2.59425C19.0577 2.61342 19.1144 2.63458 19.1702 2.65775C19.2259 2.68075 19.2807 2.70767 19.3345 2.7385C19.5563 2.83467 19.7227 2.98208 19.8337 3.18075C19.9446 3.37942 20 3.59608 20 3.83075V13.4962C20 13.9052 19.8279 14.2193 19.4837 14.4385C19.1394 14.6577 18.773 14.6948 18.3845 14.55C17.9218 14.3705 17.4491 14.2403 16.9663 14.1595C16.4836 14.0788 15.9948 14.0385 15.5 14.0385C14.5128 14.0385 13.5526 14.1878 12.6193 14.4865C11.6859 14.7852 10.8128 15.2128 10 15.7693ZM13.1923 11V1L16.3078 0V10L13.1923 11Z" fill="#FC0343"/>
</svg>
