<svg width="14" height="14" viewBox="0 0 14 14" fill="none" xmlns="http://www.w3.org/2000/svg">
<path d="M1.9987 13.6663C1.54036 13.6663 1.148 13.5031 0.821615 13.1768C0.495226 12.8504 0.332031 12.458 0.332031 11.9997C0.332031 11.5413 0.495226 11.149 0.821615 10.8226C1.148 10.4962 1.54036 10.333 1.9987 10.333C2.45703 10.333 2.84939 10.4962 3.17578 10.8226C3.50217 11.149 3.66536 11.5413 3.66536 11.9997C3.66536 12.458 3.50217 12.8504 3.17578 13.1768C2.84939 13.5031 2.45703 13.6663 1.9987 13.6663ZM6.9987 13.6663C6.54036 13.6663 6.148 13.5031 5.82161 13.1768C5.49523 12.8504 5.33203 12.458 5.33203 11.9997C5.33203 11.5413 5.49523 11.149 5.82161 10.8226C6.148 10.4962 6.54036 10.333 6.9987 10.333C7.45703 10.333 7.84939 10.4962 8.17578 10.8226C8.50217 11.149 8.66536 11.5413 8.66536 11.9997C8.66536 12.458 8.50217 12.8504 8.17578 13.1768C7.84939 13.5031 7.45703 13.6663 6.9987 13.6663ZM11.9987 13.6663C11.5404 13.6663 11.148 13.5031 10.8216 13.1768C10.4952 12.8504 10.332 12.458 10.332 11.9997C10.332 11.5413 10.4952 11.149 10.8216 10.8226C11.148 10.4962 11.5404 10.333 11.9987 10.333C12.457 10.333 12.8494 10.4962 13.1758 10.8226C13.5022 11.149 13.6654 11.5413 13.6654 11.9997C13.6654 12.458 13.5022 12.8504 13.1758 13.1768C12.8494 13.5031 12.457 13.6663 11.9987 13.6663ZM1.9987 8.66634C1.54036 8.66634 1.148 8.50315 0.821615 8.17676C0.495226 7.85037 0.332031 7.45801 0.332031 6.99967C0.332031 6.54134 0.495226 6.14898 0.821615 5.82259C1.148 5.4962 1.54036 5.33301 1.9987 5.33301C2.45703 5.33301 2.84939 5.4962 3.17578 5.82259C3.50217 6.14898 3.66536 6.54134 3.66536 6.99967C3.66536 7.45801 3.50217 7.85037 3.17578 8.17676C2.84939 8.50315 2.45703 8.66634 1.9987 8.66634ZM6.9987 8.66634C6.54036 8.66634 6.148 8.50315 5.82161 8.17676C5.49523 7.85037 5.33203 7.45801 5.33203 6.99967C5.33203 6.54134 5.49523 6.14898 5.82161 5.82259C6.148 5.4962 6.54036 5.33301 6.9987 5.33301C7.45703 5.33301 7.84939 5.4962 8.17578 5.82259C8.50217 6.14898 8.66536 6.54134 8.66536 6.99967C8.66536 7.45801 8.50217 7.85037 8.17578 8.17676C7.84939 8.50315 7.45703 8.66634 6.9987 8.66634ZM11.9987 8.66634C11.5404 8.66634 11.148 8.50315 10.8216 8.17676C10.4952 7.85037 10.332 7.45801 10.332 6.99967C10.332 6.54134 10.4952 6.14898 10.8216 5.82259C11.148 5.4962 11.5404 5.33301 11.9987 5.33301C12.457 5.33301 12.8494 5.4962 13.1758 5.82259C13.5022 6.14898 13.6654 6.54134 13.6654 6.99967C13.6654 7.45801 13.5022 7.85037 13.1758 8.17676C12.8494 8.50315 12.457 8.66634 11.9987 8.66634ZM1.9987 3.66634C1.54036 3.66634 1.148 3.50315 0.821615 3.17676C0.495226 2.85037 0.332031 2.45801 0.332031 1.99967C0.332031 1.54134 0.495226 1.14898 0.821615 0.822591C1.148 0.496202 1.54036 0.333008 1.9987 0.333008C2.45703 0.333008 2.84939 0.496202 3.17578 0.822591C3.50217 1.14898 3.66536 1.54134 3.66536 1.99967C3.66536 2.45801 3.50217 2.85037 3.17578 3.17676C2.84939 3.50315 2.45703 3.66634 1.9987 3.66634ZM6.9987 3.66634C6.54036 3.66634 6.148 3.50315 5.82161 3.17676C5.49523 2.85037 5.33203 2.45801 5.33203 1.99967C5.33203 1.54134 5.49523 1.14898 5.82161 0.822591C6.148 0.496202 6.54036 0.333008 6.9987 0.333008C7.45703 0.333008 7.84939 0.496202 8.17578 0.822591C8.50217 1.14898 8.66536 1.54134 8.66536 1.99967C8.66536 2.45801 8.50217 2.85037 8.17578 3.17676C7.84939 3.50315 7.45703 3.66634 6.9987 3.66634ZM11.9987 3.66634C11.5404 3.66634 11.148 3.50315 10.8216 3.17676C10.4952 2.85037 10.332 2.45801 10.332 1.99967C10.332 1.54134 10.4952 1.14898 10.8216 0.822591C11.148 0.496202 11.5404 0.333008 11.9987 0.333008C12.457 0.333008 12.8494 0.496202 13.1758 0.822591C13.5022 1.14898 13.6654 1.54134 13.6654 1.99967C13.6654 2.45801 13.5022 2.85037 13.1758 3.17676C12.8494 3.50315 12.457 3.66634 11.9987 3.66634Z" fill="#393939"/>
</svg>
