<svg width="18" height="18" viewBox="0 0 18 18" fill="none" xmlns="http://www.w3.org/2000/svg">
<path d="M6.5385 9L9.6155 5.923V12.077L6.5385 9ZM0 8.99675C0 10.2413 0.236164 11.4113 0.708498 12.507C1.18083 13.6025 1.82183 14.5555 2.6315 15.366C3.44117 16.1765 4.39333 16.8181 5.488 17.2908C6.5825 17.7636 7.75208 18 8.99675 18C10.2413 18 11.4113 17.7638 12.507 17.2915C13.6025 16.8192 14.5555 16.1782 15.366 15.3685C16.1765 14.5588 16.8181 13.6067 17.2908 12.512C17.7636 11.4175 18 10.2479 18 9.00325C18 7.75875 17.7638 6.58867 17.2915 5.493C16.8192 4.3975 16.1782 3.4445 15.3685 2.634C14.5588 1.8235 13.6067 1.18192 12.512 0.709249C11.4175 0.236416 10.2479 0 9.00325 0C7.75875 0 6.58867 0.236166 5.493 0.7085C4.3975 1.18083 3.4445 1.82183 2.634 2.6315C1.8235 3.44117 1.18192 4.39333 0.709249 5.488C0.236416 6.5825 0 7.75208 0 8.99675ZM1 9C1 6.76667 1.775 4.875 3.325 3.325C4.875 1.775 6.76667 1 9 1C11.2333 1 13.125 1.775 14.675 3.325C16.225 4.875 17 6.76667 17 9C17 11.2333 16.225 13.125 14.675 14.675C13.125 16.225 11.2333 17 9 17C6.76667 17 4.875 16.225 3.325 14.675C1.775 13.125 1 11.2333 1 9Z" fill="#8E121E"/>
</svg>
