<svg width="18" height="18" viewBox="0 0 18 18" fill="none" xmlns="http://www.w3.org/2000/svg">
<path d="M9 12.2885L12.2885 9L9 5.7115L8.3115 6.4L10.4115 8.5H5.5V9.5H10.4115L8.3115 11.6L9 12.2885ZM9.00325 18C7.75875 18 6.58867 17.7638 5.493 17.2915C4.3975 16.8192 3.4445 16.1782 2.634 15.3685C1.8235 14.5588 1.18192 13.6067 0.70925 12.512C0.236417 11.4175 0 10.2479 0 9.00325C0 7.75875 0.236167 6.58867 0.7085 5.493C1.18083 4.3975 1.82183 3.4445 2.6315 2.634C3.44117 1.8235 4.39333 1.18192 5.488 0.70925C6.5825 0.236417 7.75208 0 8.99675 0C10.2413 0 11.4113 0.236167 12.507 0.708501C13.6025 1.18083 14.5555 1.82183 15.366 2.6315C16.1765 3.44117 16.8181 4.39333 17.2908 5.488C17.7636 6.5825 18 7.75208 18 8.99675C18 10.2413 17.7638 11.4113 17.2915 12.507C16.8192 13.6025 16.1782 14.5555 15.3685 15.366C14.5588 16.1765 13.6067 16.8181 12.512 17.2908C11.4175 17.7636 10.2479 18 9.00325 18Z" fill="#FC0544"/>
</svg>
