<svg width="18" height="22" viewBox="0 0 18 22" fill="none" xmlns="http://www.w3.org/2000/svg">
<path d="M9.0104 -0.00390606C7.74476 -0.00390606 6.71875 1.0221 6.71875 2.28775C6.7209 2.3977 6.73104 2.5074 6.749 2.6159C6.76498 2.72569 6.82024 2.82596 6.90452 2.89811C6.98881 2.97026 7.0964 3.00939 7.20735 3.00825C7.25108 3.0082 7.29458 3.00202 7.3366 2.9899C8.43177 2.66587 9.59733 2.66587 10.6925 2.9899C10.8227 3.02213 10.9605 2.99712 11.0711 2.92115C11.127 2.88294 11.1743 2.83356 11.2101 2.77614C11.2459 2.71871 11.2695 2.65447 11.2792 2.5875C11.2957 2.48807 11.3048 2.38761 11.3067 2.28684C11.3062 1.0212 10.2797 -0.00442168 9.0141 -0.00390606H9.0104Z" fill="#F57C00"/>
<path d="M11.7552 18.3301H6.25522C6.00209 18.3301 5.79688 18.5353 5.79688 18.7884C5.79688 20.5603 7.23328 21.9968 9.00522 21.9968C10.7772 21.9968 12.2136 20.5604 12.2136 18.7884C12.2136 18.5353 12.0084 18.3301 11.7552 18.3301Z" fill="#FFA000"/>
<path d="M17.5521 16.688C17.4073 16.3681 17.2249 16.0106 17.0232 15.6164C15.7828 13.5153 15.0765 11.1422 14.9662 8.70476C14.9662 5.07201 13.0412 2.40635 10.0639 1.9141C9.2059 1.77621 8.32801 1.83083 7.49377 2.07403C6.65952 2.31723 5.88981 2.74292 5.24036 3.32026C4.52146 3.94782 3.95111 4.7274 3.57061 5.60254C3.19011 6.47768 3.00899 7.42649 3.04036 8.38026C3.00243 10.9337 2.29707 13.4328 0.994357 15.6293C0.797259 16.0179 0.617607 16.3718 0.474607 16.6871C0.061505 17.5982 0.465153 18.6717 1.37626 19.0848C1.61387 19.1926 1.87196 19.2477 2.13286 19.2465H15.8975C16.8979 19.2495 17.7113 18.4409 17.7142 17.4406C17.715 17.1811 17.66 16.9244 17.553 16.688L17.5521 16.688Z" fill="#FFC107"/>
<path d="M2.8958 17.4121C2.64268 17.4121 2.43746 17.2068 2.4375 16.9537C2.4375 16.8824 2.45413 16.8121 2.48605 16.7484L2.63365 16.4588C4.00273 14.0951 4.77457 11.4332 4.88225 8.70376C4.88225 6.37816 5.963 3.66211 9.00725 3.66211C9.26038 3.66211 9.4656 3.86733 9.4656 4.12046C9.4656 4.37359 9.26038 4.5788 9.00725 4.5788C6.0299 4.5788 5.7989 7.7358 5.7989 8.7038C5.6966 11.5791 4.88985 14.3853 3.4495 16.8759L3.3065 17.1592C3.26831 17.2353 3.20965 17.2993 3.1371 17.344C3.06456 17.3887 2.981 17.4122 2.8958 17.4121Z" fill="#FFD54F"/>
</svg>
