<svg width="28" height="28" viewBox="0 0 28 28" fill="none" xmlns="http://www.w3.org/2000/svg">
<g clip-path="url(#clip0_137_134205)">
<path d="M22.4853 3.60174V24.3896C22.4853 26.129 21.0429 27.5714 19.3035 27.5714H8.69744C6.95805 27.5714 5.51562 26.129 5.51562 24.3896V3.60174C5.51562 1.86235 6.91563 0.419922 8.69744 0.419922H19.3459C21.0853 0.419922 22.4853 1.86235 22.4853 3.60174Z" fill="url(#paint0_linear_137_134205)"/>
<path d="M5.51562 15.5234V24.3901C5.51562 26.1295 6.95805 27.5719 8.69744 27.5719H19.3459C21.0853 27.5719 22.5277 26.1295 22.5277 24.3901V15.5234H5.51562Z" fill="url(#paint1_linear_137_134205)"/>
<path d="M21.2133 21.8445C21.2133 22.9051 20.3648 23.7535 19.3042 23.7535H8.69815C7.63755 23.7535 6.78906 22.9051 6.78906 21.8445V4.02628C6.78906 2.96567 7.63755 2.11719 8.69815 2.11719H11.3285V2.24446C11.3285 2.71113 11.7103 3.05052 12.1345 3.05052H15.9103C16.3769 3.05052 16.7163 2.6687 16.7163 2.24446V2.11719H19.3466C20.3648 2.11719 21.2133 2.96567 21.2133 4.02628V21.8445Z" fill="url(#paint2_linear_137_134205)"/>
<path d="M6.78906 19.2988V21.8443C6.78906 22.9049 7.63755 23.7534 8.69815 23.7534H19.3466C20.4072 23.7534 21.2557 22.9049 21.2557 21.8443V19.2988H6.78906Z" fill="url(#paint3_linear_137_134205)"/>
<path d="M13.9969 26.5114C14.4655 26.5114 14.8454 26.1315 14.8454 25.6629C14.8454 25.1943 14.4655 24.8145 13.9969 24.8145C13.5283 24.8145 13.1484 25.1943 13.1484 25.6629C13.1484 26.1315 13.5283 26.5114 13.9969 26.5114Z" fill="#CAE3EF"/>
<path d="M14 7.50391V20.5706H24.9455C25.497 20.5706 25.9212 20.1463 25.9212 19.5948V8.47966C25.9212 7.92815 25.497 7.50391 24.9455 7.50391H14Z" fill="url(#paint4_linear_137_134205)"/>
<path d="M13.9993 7.50391V20.5706H3.05388C2.50237 20.5706 2.07812 20.1463 2.07812 19.5948V8.47966C2.07812 7.92815 2.50237 7.50391 3.05388 7.50391H13.9993Z" fill="url(#paint5_linear_137_134205)"/>
<path d="M24.3939 6.444V17.941C24.3939 18.4501 23.9273 18.7895 23.4606 18.7046C20.3212 17.9834 17.1818 18.4925 14 20.5713V7.5046C17.3091 5.34097 20.5758 4.8743 23.8 5.72278C24.1394 5.76521 24.3939 6.1046 24.3939 6.444Z" fill="url(#paint6_linear_137_134205)"/>
<path d="M23.0337 16.7959V17.1353C20.4883 16.6263 17.9004 16.9656 15.3125 18.3232V17.9838C17.9004 16.6263 20.4883 16.2869 23.0337 16.7959ZM23.0337 15.4384V15.7778C20.4883 15.2687 17.9004 15.6081 15.3125 16.9656V16.6263C17.9004 15.2687 20.4883 14.9293 23.0337 15.4384ZM23.0337 14.0808V14.4202C20.4883 13.9111 17.9004 14.2505 15.3125 15.6081V15.2687C17.9004 13.9111 20.4883 13.5717 23.0337 14.0808ZM23.0337 12.7232V13.0626C20.4883 12.5535 17.9004 12.8929 15.3125 14.2505V13.9111C17.9004 12.5535 20.4883 12.2141 23.0337 12.7232ZM23.0337 11.3656V11.705C20.4883 11.1959 17.9004 11.5353 15.3125 12.8929V12.5535C17.9004 11.1959 20.4883 10.8566 23.0337 11.3656ZM23.0337 10.0081V10.3475C20.4883 9.83837 17.9004 10.1778 15.3125 11.5353V11.1959C17.9004 9.83837 20.4883 9.49898 23.0337 10.0081ZM23.0337 8.60807V8.94746C20.4883 8.43837 17.9004 8.77777 15.3125 10.1353V9.79595C17.9004 8.4808 20.4883 8.1414 23.0337 8.60807ZM23.0337 7.25049V7.63231C20.4883 7.12322 17.9004 7.46261 15.3125 8.82019V8.4808C17.9004 7.12322 20.4883 6.78383 23.0337 7.25049Z" fill="white"/>
<path d="M3.60156 6.444V17.941C3.60156 18.4501 4.06823 18.7895 4.5349 18.7046C7.67429 17.9834 10.8137 18.4925 13.9955 20.5713V7.5046C10.6864 5.34097 7.41974 4.8743 4.1955 5.72278C3.85611 5.76521 3.60156 6.1046 3.60156 6.444Z" fill="url(#paint7_linear_137_134205)"/>
<path d="M4.96094 16.7959V17.1353C7.50639 16.6263 10.0943 16.9656 12.6821 18.3232V17.9838C10.0943 16.6263 7.50639 16.2869 4.96094 16.7959ZM4.96094 15.4384V15.7778C7.50639 15.2687 10.0943 15.6081 12.6821 16.9656V16.6263C10.0943 15.2687 7.50639 14.9293 4.96094 15.4384ZM4.96094 14.0808V14.4202C7.50639 13.9111 10.0943 14.2505 12.6821 15.6081V15.2687C10.0943 13.9111 7.50639 13.5717 4.96094 14.0808ZM4.96094 12.7232V13.0626C7.50639 12.5535 10.0943 12.8929 12.6821 14.2505V13.9111C10.0943 12.5535 7.50639 12.2141 4.96094 12.7232ZM4.96094 11.3656V11.705C7.50639 11.1959 10.0943 11.5353 12.6821 12.8929V12.5535C10.0943 11.1959 7.50639 10.8566 4.96094 11.3656ZM4.96094 10.0081V10.3475C7.50639 9.83837 10.0943 10.1778 12.6821 11.5353V11.1959C10.0943 9.83837 7.50639 9.49898 4.96094 10.0081ZM4.96094 8.60807V8.94746C7.50639 8.43837 10.0943 8.77777 12.6821 10.1353V9.79595C10.0943 8.4808 7.50639 8.1414 4.96094 8.60807ZM4.96094 7.25049V7.63231C7.50639 7.12322 10.0943 7.46261 12.6821 8.82019V8.4808C10.0943 7.12322 7.50639 6.78383 4.96094 7.25049Z" fill="white"/>
</g>
<defs>
<linearGradient id="paint0_linear_137_134205" x1="5.51562" y1="0.419922" x2="22.4853" y2="0.419922" gradientUnits="userSpaceOnUse">
<stop stop-color="#1FA7DF"/>
<stop offset="1" stop-color="#1F6CA7"/>
</linearGradient>
<linearGradient id="paint1_linear_137_134205" x1="5.51562" y1="15.5234" x2="22.5277" y2="15.5234" gradientUnits="userSpaceOnUse">
<stop stop-color="#1FA7DF"/>
<stop offset="1" stop-color="#1F6CA7"/>
</linearGradient>
<linearGradient id="paint2_linear_137_134205" x1="6.78906" y1="2.11719" x2="21.2133" y2="2.11719" gradientUnits="userSpaceOnUse">
<stop stop-color="#A5D1F3"/>
<stop offset="1" stop-color="#82B6E9"/>
</linearGradient>
<linearGradient id="paint3_linear_137_134205" x1="6.78906" y1="19.2988" x2="21.2557" y2="19.2988" gradientUnits="userSpaceOnUse">
<stop stop-color="#A5D1F3"/>
<stop offset="1" stop-color="#82B6E9"/>
</linearGradient>
<linearGradient id="paint4_linear_137_134205" x1="14" y1="7.50391" x2="25.9212" y2="7.50391" gradientUnits="userSpaceOnUse">
<stop stop-color="#1A4473"/>
<stop offset="1" stop-color="#182C54"/>
</linearGradient>
<linearGradient id="paint5_linear_137_134205" x1="2.07812" y1="7.50391" x2="13.9993" y2="7.50391" gradientUnits="userSpaceOnUse">
<stop stop-color="#1A4473"/>
<stop offset="1" stop-color="#182C54"/>
</linearGradient>
<linearGradient id="paint6_linear_137_134205" x1="14" y1="5.32422" x2="24.3939" y2="5.32422" gradientUnits="userSpaceOnUse">
<stop stop-color="#DEF1F7"/>
<stop offset="1" stop-color="#B6DEF7"/>
</linearGradient>
<linearGradient id="paint7_linear_137_134205" x1="3.60156" y1="5.32422" x2="13.9955" y2="5.32422" gradientUnits="userSpaceOnUse">
<stop stop-color="#DEF1F7"/>
<stop offset="1" stop-color="#B6DEF7"/>
</linearGradient>
<clipPath id="clip0_137_134205">
<rect width="28" height="28" fill="white" transform="translate(0 -0.00390625)"/>
</clipPath>
</defs>
</svg>
