<svg width="20" height="20" viewBox="0 0 20 20" fill="none" xmlns="http://www.w3.org/2000/svg">
<mask id="mask0_105_4397" style="mask-type:alpha" maskUnits="userSpaceOnUse" x="0" y="0" width="20" height="20">
<rect width="20" height="20" fill="#D9D9D9"/>
</mask>
<g mask="url(#mask0_105_4397)">
<path d="M4.68023 17.4999C4.29662 17.4999 3.97635 17.3714 3.7194 17.1145C3.46246 16.8575 3.33398 16.5373 3.33398 16.1537V5.51283C3.33398 5.12921 3.46246 4.80894 3.7194 4.55199C3.97635 4.29505 4.29662 4.16658 4.68023 4.16658H6.1544V2.75637C6.1544 2.62706 6.1969 2.51991 6.2819 2.43491C6.3669 2.35005 6.47398 2.30762 6.60315 2.30762C6.73246 2.30762 6.83961 2.35005 6.92461 2.43491C7.00947 2.51991 7.0519 2.62706 7.0519 2.75637V4.16658H13.0136V2.72428C13.0136 2.60567 13.0534 2.50658 13.1329 2.42699C13.2125 2.34741 13.3116 2.30762 13.4302 2.30762C13.5487 2.30762 13.6477 2.34741 13.7273 2.42699C13.807 2.50658 13.8469 2.60567 13.8469 2.72428V4.16658H15.3211C15.7047 4.16658 16.025 4.29505 16.2819 4.55199C16.5388 4.80894 16.6673 5.12921 16.6673 5.51283V16.1537C16.6673 16.5373 16.5388 16.8575 16.2819 17.1145C16.025 17.3714 15.7047 17.4999 15.3211 17.4999H4.68023ZM4.68023 16.6666H15.3211C15.4494 16.6666 15.567 16.6132 15.6738 16.5064C15.7806 16.3996 15.834 16.282 15.834 16.1537V8.84616H4.16732V16.1537C4.16732 16.282 4.22072 16.3996 4.32753 16.5064C4.43433 16.6132 4.5519 16.6666 4.68023 16.6666ZM10.0007 11.7947C9.82871 11.7947 9.67885 11.7309 9.55107 11.6032C9.42343 11.4756 9.35961 11.3257 9.35961 11.1537C9.35961 10.9817 9.42343 10.8319 9.55107 10.7043C9.67885 10.5766 9.82871 10.5128 10.0007 10.5128C10.1726 10.5128 10.3225 10.5766 10.4502 10.7043C10.5779 10.8319 10.6417 10.9817 10.6417 11.1537C10.6417 11.3257 10.5779 11.4756 10.4502 11.6032C10.3225 11.7309 10.1726 11.7947 10.0007 11.7947ZM6.66732 11.7947C6.49537 11.7947 6.34551 11.7309 6.21773 11.6032C6.0901 11.4756 6.02628 11.3257 6.02628 11.1537C6.02628 10.9817 6.0901 10.8319 6.21773 10.7043C6.34551 10.5766 6.49537 10.5128 6.66732 10.5128C6.83926 10.5128 6.98912 10.5766 7.1169 10.7043C7.24454 10.8319 7.30836 10.9817 7.30836 11.1537C7.30836 11.3257 7.24454 11.4756 7.1169 11.6032C6.98912 11.7309 6.83926 11.7947 6.66732 11.7947ZM13.334 11.7947C13.162 11.7947 13.0122 11.7309 12.8844 11.6032C12.7568 11.4756 12.6929 11.3257 12.6929 11.1537C12.6929 10.9817 12.7568 10.8319 12.8844 10.7043C13.0122 10.5766 13.162 10.5128 13.334 10.5128C13.5059 10.5128 13.6558 10.5766 13.7836 10.7043C13.9112 10.8319 13.975 10.9817 13.975 11.1537C13.975 11.3257 13.9112 11.4756 13.7836 11.6032C13.6558 11.7309 13.5059 11.7947 13.334 11.7947ZM10.0007 14.9999C9.82871 14.9999 9.67885 14.9361 9.55107 14.8085C9.42343 14.6808 9.35961 14.531 9.35961 14.3589C9.35961 14.1869 9.42343 14.0371 9.55107 13.9093C9.67885 13.7816 9.82871 13.7178 10.0007 13.7178C10.1726 13.7178 10.3225 13.7816 10.4502 13.9093C10.5779 14.0371 10.6417 14.1869 10.6417 14.3589C10.6417 14.531 10.5779 14.6808 10.4502 14.8085C10.3225 14.9361 10.1726 14.9999 10.0007 14.9999ZM6.66732 14.9999C6.49537 14.9999 6.34551 14.9361 6.21773 14.8085C6.0901 14.6808 6.02628 14.531 6.02628 14.3589C6.02628 14.1869 6.0901 14.0371 6.21773 13.9093C6.34551 13.7816 6.49537 13.7178 6.66732 13.7178C6.83926 13.7178 6.98912 13.7816 7.1169 13.9093C7.24454 14.0371 7.30836 14.1869 7.30836 14.3589C7.30836 14.531 7.24454 14.6808 7.1169 14.8085C6.98912 14.9361 6.83926 14.9999 6.66732 14.9999ZM13.334 14.9999C13.162 14.9999 13.0122 14.9361 12.8844 14.8085C12.7568 14.6808 12.6929 14.531 12.6929 14.3589C12.6929 14.1869 12.7568 14.0371 12.8844 13.9093C13.0122 13.7816 13.162 13.7178 13.334 13.7178C13.5059 13.7178 13.6558 13.7816 13.7836 13.9093C13.9112 14.0371 13.975 14.1869 13.975 14.3589C13.975 14.531 13.9112 14.6808 13.7836 14.8085C13.6558 14.9361 13.5059 14.9999 13.334 14.9999Z" fill="#8E121E"/>
</g>
</svg>
