<svg width="18" height="18" viewBox="0 0 18 18" fill="none" xmlns="http://www.w3.org/2000/svg">
<mask id="mask0_137_31695" style="mask-type:alpha" maskUnits="userSpaceOnUse" x="0" y="0" width="18" height="18">
<rect width="18" height="18" fill="#D9D9D9"/>
</mask>
<g mask="url(#mask0_137_31695)">
<path d="M8.4 6.28125L11.025 1.78125C12.1625 2.08125 13.1719 2.63125 14.0531 3.43125C14.9344 4.23125 15.575 5.18125 15.975 6.28125H8.4ZM6.31875 8.15625L3.75 3.65625C4.425 2.99375 5.20937 2.46875 6.10312 2.08125C6.99687 1.69375 7.9625 1.5 9 1.5C9.1625 1.5 9.35 1.50937 9.5625 1.52812C9.775 1.54687 9.96875 1.56875 10.1437 1.59375L6.31875 8.15625ZM1.74375 10.875C1.66875 10.575 1.60937 10.2687 1.56562 9.95625C1.52187 9.64375 1.5 9.325 1.5 9C1.5 8.1125 1.64375 7.275 1.93125 6.4875C2.21875 5.7 2.625 4.98125 3.15 4.33125L6.9375 10.875H1.74375ZM6.99375 16.2187C5.85625 15.9187 4.84375 15.3687 3.95625 14.5687C3.06875 13.7687 2.425 12.8187 2.025 11.7187H9.58125L6.99375 16.2187ZM9 16.5C8.8125 16.5 8.62187 16.4875 8.42812 16.4625C8.23437 16.4375 8.05 16.4125 7.875 16.3875L11.6812 9.84375L14.25 14.3437C13.575 15.0062 12.7906 15.5312 11.8969 15.9187C11.0031 16.3062 10.0375 16.5 9 16.5ZM14.85 13.6687L11.0625 7.125H16.2562C16.3312 7.425 16.3906 7.73125 16.4344 8.04375C16.4781 8.35625 16.5 8.675 16.5 9C16.5 9.875 16.3469 10.7125 16.0406 11.5125C15.7344 12.3125 15.3375 13.0312 14.85 13.6687Z" fill="white"/>
</g>
</svg>
