<svg width="36" height="36" viewBox="0 0 36 36" fill="none" xmlns="http://www.w3.org/2000/svg">
<path d="M0 18C0 8.05888 8.05888 0 18 0C27.9411 0 36 8.05888 36 18C36 27.9411 27.9411 36 18 36C8.05888 36 0 27.9411 0 18Z" fill="#FF4675"/>
<mask id="mask0_137_13253" style="mask-type:alpha" maskUnits="userSpaceOnUse" x="6" y="6" width="24" height="24">
<rect x="6" y="6" width="24" height="24" fill="#D9D9D9"/>
</mask>
<g mask="url(#mask0_137_13253)">
<path d="M17.9953 24.2692L12.6875 18.9615L13.3953 18.2537L17.9953 22.848L22.5953 18.2537L23.303 18.9615L17.9953 24.2692ZM17.9953 18.3077L12.6875 13L13.3953 12.2922L17.9953 16.8865L22.5953 12.2922L23.303 13L17.9953 18.3077Z" fill="white"/>
</g>
</svg>
