<svg width="32" height="32" viewBox="0 0 32 32" fill="none" xmlns="http://www.w3.org/2000/svg">
<path d="M1.60156 3.09405V26.6484C1.60156 28.3934 3.01614 29.808 4.76116 29.808H25.227V3.09405C25.227 2.2689 24.5581 1.60001 23.733 1.60001H3.0956C2.27046 1.59995 1.60156 2.2689 1.60156 3.09405Z" fill="url(#paint0_linear_137_138356)"/>
<path d="M17.9907 11.0797H1.60156V26.6479C1.60156 28.3929 3.01614 29.8075 4.76116 29.8075H17.9907V11.0797Z" fill="url(#paint1_linear_137_138356)"/>
<path d="M30.432 29.8082C31.2366 29.8082 31.8887 29.1569 31.8887 28.3516V10.3576C31.8887 7.11049 29.2564 4.47815 26.0093 4.47815H9.7199C8.91542 4.47815 8.26322 5.1303 8.26322 5.93483V27.3615C8.26322 28.7128 7.16774 29.8083 5.81641 29.8083H30.432V29.8082Z" fill="url(#paint2_linear_137_138356)"/>
<path d="M8.26322 22.1674V27.361C8.26322 28.7123 7.16774 29.8078 5.81641 29.8078H30.432C31.2366 29.8078 31.8887 29.1565 31.8887 28.3511V22.1674H8.26322Z" fill="url(#paint3_linear_137_138356)"/>
<path d="M31.8892 15.3822V10.3578C31.8892 10.2285 31.8835 10.1007 31.8753 9.97345H26.4805L31.8892 15.3822Z" fill="url(#paint4_linear_137_138356)"/>
<path d="M26.0117 4.47815V8.90106C26.0117 9.70571 26.664 10.358 27.4686 10.358H31.8916C31.8916 7.11061 29.2591 4.47815 26.0117 4.47815Z" fill="url(#paint5_linear_137_138356)"/>
<path d="M15.7539 24.7207H21.8138C21.9179 24.7207 22.0177 24.6793 22.0912 24.6057C22.1648 24.5322 22.2062 24.4324 22.2062 24.3283C22.2062 24.2242 22.1648 24.1244 22.0912 24.0508C22.0177 23.9773 21.9179 23.9359 21.8138 23.9359H15.7539C15.6499 23.9359 15.5501 23.9773 15.4765 24.0508C15.4029 24.1244 15.3616 24.2242 15.3616 24.3283C15.3616 24.4324 15.4029 24.5322 15.4765 24.6057C15.5501 24.6793 15.6499 24.7207 15.7539 24.7207ZM11.0096 24.7207H12.7884C12.8925 24.7207 12.9923 24.6793 13.0659 24.6057C13.1395 24.5322 13.1808 24.4324 13.1808 24.3283C13.1808 24.2242 13.1395 24.1244 13.0659 24.0508C12.9923 23.9773 12.8925 23.9359 12.7884 23.9359H11.0096C10.9055 23.9359 10.8057 23.9773 10.7321 24.0508C10.6585 24.1244 10.6172 24.2242 10.6172 24.3283C10.6172 24.4324 10.6585 24.5322 10.7321 24.6057C10.8057 24.6793 10.9055 24.7207 11.0096 24.7207ZM14.1489 24.7207H14.5936C14.6976 24.7207 14.7974 24.6793 14.871 24.6057C14.9446 24.5322 14.9859 24.4324 14.9859 24.3283C14.9859 24.2242 14.9446 24.1244 14.871 24.0508C14.7974 23.9773 14.6976 23.9359 14.5936 23.9359H14.1489C14.0448 23.9359 13.945 23.9773 13.8714 24.0508C13.7978 24.1244 13.7565 24.2242 13.7565 24.3283C13.7565 24.4324 13.7978 24.5322 13.8714 24.6057C13.945 24.6793 14.0448 24.7207 14.1489 24.7207ZM16.8479 25.9387H12.8146C12.7106 25.9387 12.6108 25.9801 12.5372 26.0537C12.4636 26.1272 12.4222 26.2271 12.4222 26.3311C12.4222 26.4352 12.4636 26.535 12.5372 26.6086C12.6108 26.6822 12.7106 26.7235 12.8146 26.7235H16.8479C16.952 26.7235 17.0518 26.6822 17.1254 26.6086C17.199 26.535 17.2403 26.4352 17.2403 26.3311C17.2403 26.2271 17.199 26.1272 17.1254 26.0537C17.0518 25.9801 16.952 25.9387 16.8479 25.9387ZM11.4543 25.9387H11.0096C10.9056 25.9387 10.8058 25.9801 10.7322 26.0537C10.6586 26.1272 10.6172 26.2271 10.6172 26.3311C10.6172 26.4352 10.6586 26.535 10.7322 26.6086C10.8058 26.6822 10.9056 26.7235 11.0096 26.7235H11.4543C11.5584 26.7235 11.6582 26.6822 11.7318 26.6086C11.8054 26.535 11.8467 26.4352 11.8467 26.3311C11.8467 26.2271 11.8054 26.1272 11.7318 26.0537C11.6582 25.9801 11.5584 25.9387 11.4543 25.9387ZM29.8419 23.9359H28.2917C28.1876 23.9359 28.0878 23.9773 28.0142 24.0508C27.9406 24.1244 27.8993 24.2242 27.8993 24.3283C27.8993 24.4324 27.9406 24.5322 28.0142 24.6057C28.0878 24.6793 28.1876 24.7207 28.2917 24.7207H29.8419C29.9459 24.7207 30.0458 24.6793 30.1193 24.6057C30.1929 24.5322 30.2343 24.4324 30.2343 24.3283C30.2343 24.2242 30.1929 24.1244 30.1193 24.0508C30.0458 23.9773 29.9459 23.9359 29.8419 23.9359ZM25.3262 23.9359H23.5473C23.4433 23.9359 23.3435 23.9773 23.2699 24.0508C23.1963 24.1244 23.155 24.2242 23.155 24.3283C23.155 24.4324 23.1963 24.5322 23.2699 24.6057C23.3435 24.6793 23.4433 24.7207 23.5473 24.7207H25.3262C25.4303 24.7207 25.5301 24.6793 25.6037 24.6057C25.6772 24.5322 25.7186 24.4324 25.7186 24.3283C25.7186 24.2242 25.6772 24.1244 25.6037 24.0508C25.5301 23.9773 25.4303 23.9359 25.3262 23.9359ZM27.1313 23.9359H26.6866C26.5825 23.9359 26.4827 23.9773 26.4091 24.0508C26.3355 24.1244 26.2942 24.2242 26.2942 24.3283C26.2942 24.4324 26.3355 24.5322 26.4091 24.6057C26.4827 24.6793 26.5825 24.7207 26.6866 24.7207H27.1313C27.2353 24.7207 27.3351 24.6793 27.4087 24.6057C27.4823 24.5322 27.5236 24.4324 27.5236 24.3283C27.5236 24.2242 27.4823 24.1244 27.4087 24.0508C27.3351 23.9773 27.2353 23.9359 27.1313 23.9359ZM22.7503 25.9387H18.717C18.613 25.9387 18.5132 25.9801 18.4396 26.0537C18.366 26.1272 18.3246 26.2271 18.3246 26.3311C18.3246 26.4352 18.366 26.535 18.4396 26.6086C18.5132 26.6822 18.613 26.7235 18.717 26.7235H22.7503C22.8544 26.7235 22.9542 26.6822 23.0278 26.6086C23.1014 26.535 23.1427 26.4352 23.1427 26.3311C23.1427 26.2271 23.1014 26.1272 23.0278 26.0537C22.9542 25.9801 22.8544 25.9387 22.7503 25.9387ZM24.5554 25.9387H24.1107C24.0066 25.9387 23.9068 25.9801 23.8332 26.0537C23.7597 26.1272 23.7183 26.2271 23.7183 26.3311C23.7183 26.4352 23.7597 26.535 23.8332 26.6086C23.9068 26.6822 24.0066 26.7235 24.1107 26.7235H24.5554C24.6595 26.7235 24.7593 26.6822 24.8329 26.6086C24.9064 26.535 24.9478 26.4352 24.9478 26.3311C24.9478 26.2271 24.9064 26.1272 24.8329 26.0537C24.7593 25.9801 24.6595 25.9387 24.5554 25.9387Z" fill="#7BACDF"/>
<path d="M12.8818 10.064L11.8098 8.11187V10.0302C11.8098 10.2107 11.5898 10.301 11.3698 10.301C11.1497 10.301 10.9297 10.2107 10.9297 10.0302V6.44751C10.9297 6.26132 11.1497 6.17663 11.3698 6.17663C11.6857 6.17663 11.8042 6.2049 12.0186 6.6167L12.9326 8.36006V6.4418C12.9326 6.25556 13.1527 6.17657 13.3727 6.17657C13.5927 6.17657 13.8128 6.25556 13.8128 6.4418V10.0301C13.8128 10.2106 13.5927 10.3009 13.3727 10.3009C13.1695 10.301 12.989 10.2615 12.8818 10.064Z" fill="url(#paint6_linear_137_138356)"/>
<path d="M15.302 7.89754H16.1483C16.3176 7.89754 16.4135 8.06116 16.4135 8.2417C16.4135 8.39403 16.3345 8.57457 16.1483 8.57457H15.302V9.5337H16.814C16.9834 9.5337 17.0793 9.71424 17.0793 9.92299C17.0793 10.1035 17.0003 10.301 16.814 10.301H14.8055C14.6138 10.301 14.4219 10.2107 14.4219 10.0302V6.44757C14.4219 6.26703 14.6137 6.1767 14.8055 6.1767H16.814C17.0003 6.1767 17.0793 6.37416 17.0793 6.55471C17.0793 6.76352 16.9834 6.94406 16.814 6.94406H15.302V7.89754Z" fill="url(#paint7_linear_137_138356)"/>
<path d="M21.1984 10.0415C21.1307 10.239 20.8768 10.3349 20.6173 10.3349C20.3635 10.3349 20.0926 10.239 20.0475 10.0415L19.7541 8.70434L19.4608 10.0415C19.4156 10.239 19.1448 10.3349 18.8909 10.3349C18.6313 10.3349 18.3718 10.239 18.3097 10.0415L17.187 6.5999C17.1796 6.57617 17.1759 6.55147 17.1758 6.52662C17.1758 6.33479 17.4917 6.17676 17.7456 6.17676C17.881 6.17676 17.9939 6.22195 18.0277 6.34043L18.8853 9.23474L19.331 7.32777C19.3648 7.17544 19.5624 7.09639 19.7541 7.09639C19.946 7.09639 20.1435 7.17538 20.1773 7.32777L20.6231 9.23474L21.4806 6.34043C21.5144 6.22195 21.6273 6.17676 21.7627 6.17676C22.0166 6.17676 22.3326 6.33473 22.3326 6.52662C22.3326 6.55483 22.3269 6.58304 22.3213 6.5999L21.1984 10.0415Z" fill="url(#paint8_linear_137_138356)"/>
<path d="M24.3473 9.19449C24.3473 8.51182 22.5587 8.6303 22.5587 7.31009C22.5587 6.4638 23.2978 6.14221 24.003 6.14221C24.3021 6.14221 25.1258 6.19863 25.1258 6.63864C25.1258 6.79097 25.0242 7.10134 24.776 7.10134C24.5729 7.10134 24.4656 6.88695 24.003 6.88695C23.6024 6.88695 23.4388 7.05056 23.4388 7.22546C23.4388 7.78965 25.2273 7.6824 25.2273 9.10422C25.2273 9.91672 24.6349 10.3568 23.8168 10.3568C23.0777 10.3568 22.457 9.9957 22.457 9.62328C22.457 9.43151 22.6263 9.14941 22.8407 9.14941C23.1059 9.14941 23.2751 9.56686 23.7998 9.56686C24.0595 9.5668 24.3473 9.46524 24.3473 9.19449Z" fill="url(#paint9_linear_137_138356)"/>
<path d="M27.1472 11.447H11.0833C10.9597 11.447 10.8411 11.4961 10.7537 11.5835C10.6663 11.6709 10.6172 11.7894 10.6172 11.913C10.6172 12.0367 10.6663 12.1552 10.7537 12.2426C10.8411 12.33 10.9597 12.3791 11.0833 12.3791H27.1472C27.2084 12.3791 27.269 12.3671 27.3255 12.3436C27.3821 12.3202 27.4335 12.2859 27.4768 12.2426C27.52 12.1993 27.5544 12.148 27.5778 12.0914C27.6012 12.0349 27.6133 11.9742 27.6133 11.913C27.6133 11.8518 27.6012 11.7912 27.5778 11.7347C27.5544 11.6781 27.5201 11.6268 27.4768 11.5835C27.4335 11.5402 27.3821 11.5059 27.3256 11.4824C27.2691 11.459 27.2084 11.447 27.1472 11.447Z" fill="url(#paint10_linear_137_138356)"/>
<path d="M29.3419 22.1675H11.5096C11.0168 22.1675 10.6172 21.7679 10.6172 21.2751V14.9612C10.6172 14.4683 11.0168 14.0687 11.5096 14.0687H29.3419C29.8348 14.0687 30.2343 14.4683 30.2343 14.9612V21.2751C30.2343 21.768 29.8348 22.1675 29.3419 22.1675Z" fill="url(#paint11_linear_137_138356)"/>
<path d="M22.5645 19.0072C23.7458 19.0072 24.7033 18.0496 24.7033 16.8684C24.7033 15.6872 23.7458 14.7297 22.5645 14.7297C21.3833 14.7297 20.4258 15.6872 20.4258 16.8684C20.4258 18.0496 21.3833 19.0072 22.5645 19.0072Z" fill="url(#paint12_linear_137_138356)"/>
<path d="M15.5969 16.25L11.6914 22.1674H22.5503L18.6449 16.25C17.9231 15.1565 16.3186 15.1565 15.5969 16.25Z" fill="url(#paint13_linear_137_138356)"/>
<path d="M29.1633 22.1681L26.4865 18.1124C25.7647 17.0188 24.1602 17.0188 23.4385 18.1124L20.7617 22.1681H29.1633Z" fill="url(#paint14_linear_137_138356)"/>
<defs>
<linearGradient id="paint0_linear_137_138356" x1="1.60156" y1="1.60001" x2="25.227" y2="1.60001" gradientUnits="userSpaceOnUse">
<stop stop-color="#EAF6FF"/>
<stop offset="1" stop-color="#B3DAFE"/>
</linearGradient>
<linearGradient id="paint1_linear_137_138356" x1="1.60156" y1="11.0797" x2="17.9907" y2="11.0797" gradientUnits="userSpaceOnUse">
<stop stop-color="#7BACDF" stop-opacity="0"/>
<stop offset="1" stop-color="#7BACDF"/>
</linearGradient>
<linearGradient id="paint2_linear_137_138356" x1="5.81641" y1="4.47815" x2="31.8887" y2="4.47815" gradientUnits="userSpaceOnUse">
<stop stop-color="#EAF6FF"/>
<stop offset="1" stop-color="#B3DAFE"/>
</linearGradient>
<linearGradient id="paint3_linear_137_138356" x1="5.81641" y1="22.1674" x2="31.8887" y2="22.1674" gradientUnits="userSpaceOnUse">
<stop stop-color="#7BACDF" stop-opacity="0"/>
<stop offset="1" stop-color="#7BACDF"/>
</linearGradient>
<linearGradient id="paint4_linear_137_138356" x1="26.4805" y1="9.97345" x2="31.8892" y2="9.97345" gradientUnits="userSpaceOnUse">
<stop stop-color="#7BACDF" stop-opacity="0"/>
<stop offset="1" stop-color="#7BACDF"/>
</linearGradient>
<linearGradient id="paint5_linear_137_138356" x1="26.0117" y1="4.47815" x2="31.8916" y2="4.47815" gradientUnits="userSpaceOnUse">
<stop stop-color="#EAF6FF"/>
<stop offset="1" stop-color="#B3DAFE"/>
</linearGradient>
<linearGradient id="paint6_linear_137_138356" x1="10.9297" y1="6.17657" x2="13.8128" y2="6.17657" gradientUnits="userSpaceOnUse">
<stop stop-color="#5A5A5A"/>
<stop offset="1" stop-color="#444444"/>
</linearGradient>
<linearGradient id="paint7_linear_137_138356" x1="14.4219" y1="6.1767" x2="17.0793" y2="6.1767" gradientUnits="userSpaceOnUse">
<stop stop-color="#5A5A5A"/>
<stop offset="1" stop-color="#444444"/>
</linearGradient>
<linearGradient id="paint8_linear_137_138356" x1="17.1758" y1="6.17676" x2="22.3326" y2="6.17676" gradientUnits="userSpaceOnUse">
<stop stop-color="#5A5A5A"/>
<stop offset="1" stop-color="#444444"/>
</linearGradient>
<linearGradient id="paint9_linear_137_138356" x1="22.457" y1="6.14221" x2="25.2273" y2="6.14221" gradientUnits="userSpaceOnUse">
<stop stop-color="#5A5A5A"/>
<stop offset="1" stop-color="#444444"/>
</linearGradient>
<linearGradient id="paint10_linear_137_138356" x1="18.7146" y1="8.3983" x2="20.908" y2="27.6408" gradientUnits="userSpaceOnUse">
<stop stop-color="#FD4755"/>
<stop offset="1" stop-color="#C41926"/>
</linearGradient>
<linearGradient id="paint11_linear_137_138356" x1="19.6104" y1="14.1683" x2="22.2829" y2="27.115" gradientUnits="userSpaceOnUse">
<stop stop-color="#B3DAFE"/>
<stop offset="1" stop-color="#0182FC"/>
</linearGradient>
<linearGradient id="paint12_linear_137_138356" x1="21.9949" y1="15.2841" x2="22.8808" y2="17.7482" gradientUnits="userSpaceOnUse">
<stop stop-color="#FEE45A"/>
<stop offset="1" stop-color="#FEA613"/>
</linearGradient>
<linearGradient id="paint13_linear_137_138356" x1="11.6914" y1="15.4299" x2="22.5503" y2="15.4299" gradientUnits="userSpaceOnUse">
<stop stop-color="#BBEC6C"/>
<stop offset="1" stop-color="#78A91F"/>
</linearGradient>
<linearGradient id="paint14_linear_137_138356" x1="20.7617" y1="17.2922" x2="29.1633" y2="17.2922" gradientUnits="userSpaceOnUse">
<stop stop-color="#BBEC6C"/>
<stop offset="1" stop-color="#78A91F"/>
</linearGradient>
</defs>
</svg>
