<svg width="14" height="20" viewBox="0 0 14 20" fill="none" xmlns="http://www.w3.org/2000/svg">
<path d="M11.529 8.31351C11.2974 8.02461 10.849 7.99943 10.5274 8.25724L7.85636 10.3986C6.38212 11.5806 4.65102 12.3872 2.84208 12.7351L0.96875 13.0954L2.14808 14.5665C2.37946 14.855 2.76361 14.9857 3.15781 14.9099C5.77675 14.4062 8.28295 13.2384 10.4173 11.5273L12.0802 10.1941C12.4017 9.9363 12.6074 9.65869 12.839 9.94759L11.529 8.31351Z" fill="url(#paint0_linear_202_10606)"/>
<path d="M11.529 8.31351C11.2974 8.02461 10.849 7.99943 10.5274 8.25724L7.85636 10.3986C6.38212 11.5806 4.65102 12.3872 2.84208 12.7351L0.96875 13.0954L2.14808 14.5665C2.37946 14.855 2.76361 14.9857 3.15781 14.9099C5.77675 14.4062 8.28295 13.2384 10.4173 11.5273L12.0802 10.1941C12.4017 9.9363 12.6074 9.65869 12.839 9.94759L11.529 8.31351Z" fill="url(#paint1_linear_202_10606)"/>
<path d="M5.625 11.8096C6.42041 11.4248 7.16986 10.9515 7.85912 10.3986L10.5301 8.25724C10.8517 7.99943 11.3001 8.02461 11.5317 8.31351L12.8418 9.94755C12.6102 9.65865 12.4045 9.93626 12.0829 10.1941L10.42 11.5272C9.38367 12.3581 8.25947 13.0604 7.07743 13.6212L5.625 11.8096Z" fill="url(#paint2_linear_202_10606)"/>
<path d="M10.2413 6.92205L9.37654 6.87354C8.9954 6.85217 8.70278 6.58154 8.66184 6.2126L8.53838 5.09989C8.52325 4.96358 8.32729 4.95738 8.27568 5.09189C7.73846 6.49138 6.62584 7.98432 5.07093 9.23091C3.97431 10.1101 2.80576 10.748 1.69211 11.1248C0.827325 11.4173 0.451913 12.4467 0.971992 13.0953L2.29281 14.7428C2.03642 14.423 2.25862 13.9142 2.69474 13.8231C4.07642 13.5344 5.61031 12.8019 7.02474 11.668C8.73399 10.2976 9.90897 8.62954 10.3726 7.11499C10.4021 7.0186 10.3405 6.92762 10.2413 6.92205Z" fill="url(#paint3_linear_202_10606)"/>
<path d="M10.3663 7.11494C9.90278 8.62945 8.72788 10.2977 7.01847 11.6679C6.59847 12.0047 6.16788 12.3059 5.73415 12.5706L2.89062 10.6236C3.62239 10.2632 4.35847 9.7973 5.06474 9.23102C6.61964 7.98436 7.73219 6.49141 8.26945 5.09181C8.32121 4.95769 8.5169 4.96357 8.53219 5.10004L8.65572 6.21259C8.69651 6.58161 8.98906 6.8522 9.37023 6.87377L10.2349 6.922C10.3342 6.92749 10.3957 7.01887 10.3663 7.11494Z" fill="url(#paint4_linear_202_10606)"/>
<path d="M2.89666 10.623C2.49199 10.8225 2.08858 10.9903 1.69211 11.1245C0.827325 11.417 0.451913 12.4464 0.971992 13.095L2.29281 14.7425C2.03642 14.4227 2.25862 13.9139 2.69474 13.8229C3.66615 13.6198 4.71278 13.1972 5.74027 12.5702L2.89666 10.623Z" fill="url(#paint5_linear_202_10606)"/>
<path d="M13.0342 10.1665C13.0079 10.126 12.9795 10.0869 12.9494 10.0492L11.5446 8.29707C11.5086 8.25213 11.4466 8.22942 11.4013 8.19727C11.4634 8.34432 11.4683 8.51578 11.4119 8.68099C10.912 10.1454 9.76402 11.7339 8.12398 13.0488C8.08681 13.0786 8.04928 13.1084 8.01186 13.1375C6.48779 14.3316 4.83465 15.0621 3.38735 15.2769C3.24469 15.2981 3.20786 15.4906 3.33779 15.5351L4.39712 15.8976C4.7483 16.0178 4.94881 16.3622 4.88681 16.7389L4.7461 17.5935C4.72994 17.6915 4.80539 17.7715 4.90586 17.7636C6.485 17.6404 8.36853 16.8562 10.0778 15.4859C11.4658 14.3731 12.5014 13.0644 13.0898 11.8006C13.3458 11.2511 13.3358 10.6282 13.0342 10.1665Z" fill="url(#paint6_linear_202_10606)"/>
<path d="M12.3894 9.34785C11.6471 10.6851 10.4467 11.7326 9 12.2788C10.1761 11.1392 11.0082 9.86942 11.4141 8.6808C11.4706 8.5157 11.4655 8.34432 11.4035 8.19727C11.4486 8.22942 11.5106 8.25217 11.5467 8.29687L12.3894 9.34785Z" fill="url(#paint7_linear_202_10606)"/>
<path d="M13.0342 10.1671C13.0079 10.1266 12.9795 10.0875 12.9494 10.0498L12.3872 9.34863C11.6449 10.6858 10.4445 11.7334 8.99775 12.2795C8.68441 12.5828 8.35533 12.8694 8.01186 13.1381C6.48779 14.3322 4.83465 15.0627 3.38735 15.2775C3.24469 15.2987 3.20786 15.4912 3.33779 15.5357L4.39712 15.8982C4.7483 16.0184 4.94881 16.3628 4.88681 16.7395L4.7461 17.5941C4.72994 17.6921 4.80539 17.772 4.90586 17.7642C6.485 17.641 8.36853 16.8568 10.0778 15.4864C11.4658 14.3737 12.5014 13.0649 13.0898 11.8012C13.3458 11.2517 13.3358 10.6288 13.0342 10.1671Z" fill="url(#paint8_linear_202_10606)"/>
<path d="M13.0342 10.1671C13.0079 10.1266 12.9795 10.0875 12.9494 10.0498L12.3872 9.34863C11.6449 10.6858 10.4445 11.7334 8.99775 12.2795C8.68441 12.5828 8.35533 12.8694 8.01186 13.1381C6.48779 14.3322 4.83465 15.0627 3.38735 15.2775C3.24469 15.2987 3.20786 15.4912 3.33779 15.5357L4.39712 15.8982C4.7483 16.0184 4.94881 16.3628 4.88681 16.7395L4.7461 17.5941C4.72994 17.6921 4.80539 17.772 4.90586 17.7642C6.485 17.641 8.36853 16.8568 10.0778 15.4864C11.4658 14.3737 12.5014 13.0649 13.0898 11.8012C13.3458 11.2517 13.3358 10.6288 13.0342 10.1671Z" fill="url(#paint9_linear_202_10606)"/>
<path d="M12.284 19.9995H1.72442C1.28121 19.9995 0.921875 19.6402 0.921875 19.197V17.025C0.921875 16.0587 1.70521 15.2754 2.67148 15.2754H11.3369C12.3032 15.2754 13.0865 16.0587 13.0865 17.025V19.197C13.0866 19.6402 12.7273 19.9995 12.284 19.9995Z" fill="url(#paint10_linear_202_10606)"/>
<path d="M11.4619 18.6932H2.54688V16.7194C2.54688 16.3512 2.84535 16.0527 3.21354 16.0527H10.7952C11.1634 16.0527 11.4619 16.3512 11.4619 16.7194V18.6932H11.4619Z" fill="url(#paint11_linear_202_10606)"/>
<path d="M0.921875 17.1278V19.1975C0.921875 19.6407 1.28117 20 1.72442 20H12.284C12.7272 20 13.0866 19.6407 13.0866 19.1975V17.1278H0.921875Z" fill="url(#paint12_linear_202_10606)"/>
<path d="M0.921875 18.7451V19.1975C0.921875 19.6407 1.28117 20 1.72438 20H12.284C12.7273 20 13.0865 19.6407 13.0865 19.1975V18.7451H0.921875Z" fill="url(#paint13_linear_202_10606)"/>
<path d="M13.0838 19.0687H0.919118C0.841113 19.0687 0.766303 19.0377 0.711145 18.9826C0.655987 18.9274 0.625 18.8526 0.625 18.7746C0.625 18.6966 0.655987 18.6218 0.711145 18.5666C0.766303 18.5115 0.841113 18.4805 0.919118 18.4805H13.0838C13.1618 18.4805 13.2366 18.5115 13.2918 18.5666C13.347 18.6218 13.3779 18.6966 13.3779 18.7746C13.3779 18.8526 13.347 18.9274 13.2918 18.9826C13.2366 19.0377 13.1618 19.0687 13.0838 19.0687Z" fill="url(#paint14_linear_202_10606)"/>
<path d="M4.86852 17.0537H4.50672C4.42205 17.0537 4.34086 17.0873 4.281 17.1472C4.22113 17.2071 4.1875 17.2883 4.1875 17.3729C4.1875 17.4576 4.22113 17.5388 4.281 17.5986C4.34086 17.6585 4.42205 17.6921 4.50672 17.6921H4.86852C4.95318 17.6921 5.03437 17.6585 5.09424 17.5986C5.1541 17.5388 5.18774 17.4576 5.18774 17.3729C5.18774 17.2883 5.1541 17.2071 5.09424 17.1472C5.03437 17.0873 4.95318 17.0537 4.86852 17.0537Z" fill="url(#paint15_linear_202_10606)"/>
<path d="M9.49893 17.0537H5.99109C5.90643 17.0537 5.82524 17.0873 5.76537 17.1472C5.70551 17.2071 5.67188 17.2883 5.67188 17.3729C5.67188 17.4576 5.70551 17.5388 5.76537 17.5986C5.82524 17.6585 5.90643 17.6921 5.99109 17.6921H9.49893C9.58359 17.6921 9.66479 17.6585 9.72465 17.5986C9.78452 17.5388 9.81815 17.4576 9.81815 17.3729C9.81815 17.2883 9.78452 17.2071 9.72465 17.1472C9.66479 17.0873 9.58359 17.0537 9.49893 17.0537Z" fill="url(#paint16_linear_202_10606)"/>
<path d="M7.00552 10.8987C9.43776 10.8987 11.4095 8.92702 11.4095 6.49478C11.4095 4.06254 9.43776 2.09082 7.00552 2.09082C4.57328 2.09082 2.60156 4.06254 2.60156 6.49478C2.60156 8.92702 4.57328 10.8987 7.00552 10.8987Z" fill="url(#paint17_linear_202_10606)"/>
<path d="M7.0062 10.3913C9.15836 10.3913 10.903 8.64664 10.903 6.49448C10.903 4.34232 9.15836 2.59766 7.0062 2.59766C4.85404 2.59766 3.10938 4.34232 3.10938 6.49448C3.10938 8.64664 4.85404 10.3913 7.0062 10.3913Z" fill="url(#paint18_linear_202_10606)"/>
<path d="M6.99826 9.79047C8.81812 9.79047 10.2934 8.31519 10.2934 6.49533C10.2934 4.67548 8.81812 3.2002 6.99826 3.2002C5.17841 3.2002 3.70312 4.67548 3.70312 6.49533C3.70312 8.31519 5.17841 9.79047 6.99826 9.79047Z" fill="url(#paint19_linear_202_10606)"/>
<path d="M7.00283 0C3.41593 0 0.507812 2.90812 0.507812 6.49502C0.507812 10.0819 3.41593 12.9116 7.00283 12.9116C10.5897 12.9116 13.4978 10.082 13.4978 6.49506C13.4978 2.90816 10.5897 0 7.00283 0ZM4.28056 9.88306C3.58209 10.3079 2.67177 10.0859 2.24715 9.38749C1.82228 8.68902 2.04401 7.77867 2.74248 7.35408C3.44095 6.92922 4.35154 7.15067 4.7764 7.84914C5.20099 8.54757 4.97899 9.4582 4.28056 9.88306ZM4.7764 5.14094C4.35154 5.83937 3.44119 6.06114 2.74271 5.63628C2.04424 5.21141 1.82224 4.30106 2.24711 3.60259C2.67197 2.90412 3.5826 2.68239 4.28103 3.10726C4.97954 3.53212 5.20126 4.44251 4.7764 5.14094ZM7.00283 12.0614C6.18526 12.0614 5.52271 11.3988 5.52271 10.5813C5.52271 9.76396 6.18526 9.10114 7.00283 9.10114C7.8204 9.10114 8.48295 9.76396 8.48295 10.5813C8.48295 11.3988 7.8204 12.0614 7.00283 12.0614ZM7.00283 3.88894C6.18526 3.88894 5.52271 3.22667 5.52271 2.4091C5.52271 1.59153 6.18526 0.928706 7.00283 0.928706C7.8204 0.928706 8.48295 1.59153 8.48295 2.4091C8.48295 3.22667 7.8204 3.88894 7.00283 3.88894ZM9.72483 3.10726C10.4233 2.68239 11.3339 2.90412 11.7585 3.60259C12.1834 4.30106 11.9614 5.21137 11.2629 5.63628C10.5645 6.06114 9.65413 5.83941 9.22926 5.14094C8.80467 4.44251 9.0264 3.53212 9.72483 3.10726ZM9.72511 9.88306C9.02664 9.4582 8.80464 8.54757 9.22954 7.84914C9.65413 7.15071 10.5648 6.92922 11.2632 7.35408C11.9617 7.77867 12.1834 8.68902 11.7588 9.38749C11.3339 10.0859 10.4236 10.3079 9.72511 9.88306Z" fill="url(#paint20_linear_202_10606)"/>
<path d="M7.00272 0C3.41566 0 0.507812 2.90824 0.507812 6.4949C0.507812 10.082 3.41566 12.9902 7.00272 12.9902C10.5898 12.9902 13.4976 10.082 13.4976 6.4949C13.4976 2.90824 10.5898 0 7.00272 0ZM7.00272 12.5588C3.65919 12.5588 0.939185 9.83843 0.939185 6.4949C0.939185 3.15137 3.65919 0.431373 7.00272 0.431373C10.3462 0.431373 13.0662 3.15137 13.0662 6.4949C13.0662 9.83843 10.3462 12.5588 7.00272 12.5588Z" fill="url(#paint21_linear_202_10606)"/>
<path d="M7.0046 8.66363C8.20233 8.66363 9.17327 7.69268 9.17327 6.49496C9.17327 5.29724 8.20233 4.32629 7.0046 4.32629C5.80688 4.32629 4.83594 5.29724 4.83594 6.49496C4.83594 7.69268 5.80688 8.66363 7.0046 8.66363Z" fill="url(#paint22_linear_202_10606)"/>
<path d="M6.17136 6.2021C6.46879 6.2021 6.70991 5.96098 6.70991 5.66355C6.70991 5.36612 6.46879 5.125 6.17136 5.125C5.87393 5.125 5.63281 5.36612 5.63281 5.66355C5.63281 5.96098 5.87393 6.2021 6.17136 6.2021Z" fill="url(#paint23_linear_202_10606)"/>
<path d="M7.83542 7.86518C8.13286 7.86518 8.37397 7.62407 8.37397 7.32664C8.37397 7.0292 8.13286 6.78809 7.83542 6.78809C7.53799 6.78809 7.29688 7.0292 7.29688 7.32664C7.29688 7.62407 7.53799 7.86518 7.83542 7.86518Z" fill="url(#paint24_linear_202_10606)"/>
<path d="M7.83542 6.2021C8.13286 6.2021 8.37397 5.96098 8.37397 5.66355C8.37397 5.36612 8.13286 5.125 7.83542 5.125C7.53799 5.125 7.29688 5.36612 7.29688 5.66355C7.29688 5.96098 7.53799 6.2021 7.83542 6.2021Z" fill="url(#paint25_linear_202_10606)"/>
<path d="M6.17136 7.86518C6.46879 7.86518 6.70991 7.62407 6.70991 7.32664C6.70991 7.0292 6.46879 6.78809 6.17136 6.78809C5.87393 6.78809 5.63281 7.0292 5.63281 7.32664C5.63281 7.62407 5.87393 7.86518 6.17136 7.86518Z" fill="url(#paint26_linear_202_10606)"/>
<path d="M11.773 7.8693C12.0392 8.32366 12.0538 8.90593 11.7611 9.3875C11.3362 10.086 10.4259 10.3079 9.72739 9.88307C9.03558 9.46224 8.81158 8.56503 9.22021 7.86926H4.79025C5.1986 8.56499 4.97464 9.46224 4.28284 9.88307C3.58437 10.3079 2.67405 10.0859 2.24943 9.3875C1.95649 8.90593 1.97103 8.32366 2.23719 7.8693H0.65625C1.28692 10.7962 3.88974 12.9901 7.00511 12.9901C10.1204 12.9901 12.7233 10.7962 13.3539 7.8693H11.773ZM7.00511 12.0614C6.18754 12.0614 5.525 11.3988 5.525 10.5813C5.525 9.76397 6.18754 9.10114 7.00511 9.10114C7.82268 9.10114 8.48523 9.76397 8.48523 10.5813C8.48523 11.3988 7.82268 12.0614 7.00511 12.0614Z" fill="url(#paint27_linear_202_10606)"/>
<defs>
<linearGradient id="paint0_linear_202_10606" x1="6.33267" y1="10.4617" x2="7.82287" y2="13.2264" gradientUnits="userSpaceOnUse">
<stop stop-color="#FBC56D"/>
<stop offset="1" stop-color="#C5715A"/>
</linearGradient>
<linearGradient id="paint1_linear_202_10606" x1="7.78875" y1="12.5903" x2="6.6711" y2="11.2373" gradientUnits="userSpaceOnUse">
<stop stop-color="#8C3D27" stop-opacity="0"/>
<stop offset="1" stop-color="#8C3D27"/>
</linearGradient>
<linearGradient id="paint2_linear_202_10606" x1="9.15772" y1="10.8303" x2="10.4703" y2="11.4221" gradientUnits="userSpaceOnUse">
<stop stop-color="#8C3D27" stop-opacity="0"/>
<stop offset="1" stop-color="#8C3D27"/>
</linearGradient>
<linearGradient id="paint3_linear_202_10606" x1="5.81736" y1="10.8892" x2="6.30756" y2="12.948" gradientUnits="userSpaceOnUse">
<stop stop-color="#FEF0AE"/>
<stop offset="1" stop-color="#FBC56D"/>
</linearGradient>
<linearGradient id="paint4_linear_202_10606" x1="6.63215" y1="12.0589" x2="6.63215" y2="10.6275" gradientUnits="userSpaceOnUse">
<stop stop-color="#DC8758" stop-opacity="0"/>
<stop offset="0.996" stop-color="#DC8758" stop-opacity="0.996"/>
<stop offset="1" stop-color="#DC8758"/>
</linearGradient>
<linearGradient id="paint5_linear_202_10606" x1="2.63313" y1="12.6786" x2="3.96646" y2="11.5805" gradientUnits="userSpaceOnUse">
<stop stop-color="#DC8758" stop-opacity="0"/>
<stop offset="0.996" stop-color="#DC8758" stop-opacity="0.996"/>
<stop offset="1" stop-color="#DC8758"/>
</linearGradient>
<linearGradient id="paint6_linear_202_10606" x1="8.19951" y1="12.9842" x2="9.76814" y2="15.1018" gradientUnits="userSpaceOnUse">
<stop stop-color="#FEF0AE"/>
<stop offset="1" stop-color="#FBC56D"/>
</linearGradient>
<linearGradient id="paint7_linear_202_10606" x1="9.98514" y1="10.1545" x2="11.3577" y2="10.6839" gradientUnits="userSpaceOnUse">
<stop stop-color="#DC8758" stop-opacity="0"/>
<stop offset="0.996" stop-color="#DC8758" stop-opacity="0.996"/>
<stop offset="1" stop-color="#DC8758"/>
</linearGradient>
<linearGradient id="paint8_linear_202_10606" x1="8.58214" y1="13.8661" x2="7.77822" y2="11.8465" gradientUnits="userSpaceOnUse">
<stop stop-color="#DC8758" stop-opacity="0"/>
<stop offset="0.996" stop-color="#DC8758" stop-opacity="0.996"/>
<stop offset="1" stop-color="#DC8758"/>
</linearGradient>
<linearGradient id="paint9_linear_202_10606" x1="8.26481" y1="14.4709" x2="8.26481" y2="15.4609" gradientUnits="userSpaceOnUse">
<stop stop-color="#DC8758" stop-opacity="0"/>
<stop offset="0.996" stop-color="#DC8758" stop-opacity="0.996"/>
<stop offset="1" stop-color="#DC8758"/>
</linearGradient>
<linearGradient id="paint10_linear_202_10606" x1="6.39231" y1="16.0014" x2="7.17662" y2="18.6157" gradientUnits="userSpaceOnUse">
<stop stop-color="#5A5A5A"/>
<stop offset="1" stop-color="#444444"/>
</linearGradient>
<linearGradient id="paint11_linear_202_10606" x1="6.59378" y1="16.2883" x2="7.11637" y2="18.0303" gradientUnits="userSpaceOnUse">
<stop stop-color="#FEF0AE"/>
<stop offset="1" stop-color="#FBC56D"/>
</linearGradient>
<linearGradient id="paint12_linear_202_10606" x1="7.00423" y1="18.226" x2="7.00423" y2="19.7889" gradientUnits="userSpaceOnUse">
<stop stop-color="#433F43" stop-opacity="0"/>
<stop offset="1" stop-color="#1A1A1A"/>
</linearGradient>
<linearGradient id="paint13_linear_202_10606" x1="7.00423" y1="19.7647" x2="7.00423" y2="19.1752" gradientUnits="userSpaceOnUse">
<stop stop-color="#433F43" stop-opacity="0"/>
<stop offset="1" stop-color="#1A1A1A"/>
</linearGradient>
<linearGradient id="paint14_linear_202_10606" x1="7.00147" y1="18.49" x2="7.00147" y2="19.0031" gradientUnits="userSpaceOnUse">
<stop stop-color="#5A5A5A"/>
<stop offset="1" stop-color="#444444"/>
</linearGradient>
<linearGradient id="paint15_linear_202_10606" x1="4.61181" y1="17.0805" x2="5.43535" y2="20.257" gradientUnits="userSpaceOnUse">
<stop stop-color="#FBC56D"/>
<stop offset="1" stop-color="#C5715A"/>
</linearGradient>
<linearGradient id="paint16_linear_202_10606" x1="7.47682" y1="16.3386" x2="8.30035" y2="19.515" gradientUnits="userSpaceOnUse">
<stop stop-color="#FBC56D"/>
<stop offset="1" stop-color="#C5715A"/>
</linearGradient>
<linearGradient id="paint17_linear_202_10606" x1="4.47195" y1="3.96125" x2="7.82243" y2="7.31168" gradientUnits="userSpaceOnUse">
<stop stop-color="#FBC56D"/>
<stop offset="1" stop-color="#C5715A"/>
</linearGradient>
<linearGradient id="paint18_linear_202_10606" x1="2.7709" y1="2.25919" x2="12.9236" y2="12.4119" gradientUnits="userSpaceOnUse">
<stop stop-color="#8C3D27" stop-opacity="0"/>
<stop offset="1" stop-color="#8C3D27"/>
</linearGradient>
<linearGradient id="paint19_linear_202_10606" x1="2.67473" y1="2.1718" x2="12.5987" y2="12.0958" gradientUnits="userSpaceOnUse">
<stop stop-color="#8C3D27" stop-opacity="0"/>
<stop offset="1" stop-color="#8C3D27"/>
</linearGradient>
<linearGradient id="paint20_linear_202_10606" x1="3.45479" y1="2.92757" x2="7.9693" y2="7.44208" gradientUnits="userSpaceOnUse">
<stop stop-color="#FEF0AE"/>
<stop offset="1" stop-color="#FBC56D"/>
</linearGradient>
<linearGradient id="paint21_linear_202_10606" x1="8.87283" y1="8.36518" x2="1.94436" y2="1.43671" gradientUnits="userSpaceOnUse">
<stop stop-color="#FEF0AE"/>
<stop offset="1" stop-color="#FBC56D"/>
</linearGradient>
<linearGradient id="paint22_linear_202_10606" x1="5.757" y1="5.24735" x2="7.40688" y2="6.89724" gradientUnits="userSpaceOnUse">
<stop stop-color="#FEF0AE"/>
<stop offset="1" stop-color="#FBC56D"/>
</linearGradient>
<linearGradient id="paint23_linear_202_10606" x1="6.74705" y1="6.23924" x2="5.86222" y2="5.35441" gradientUnits="userSpaceOnUse">
<stop stop-color="#FEF0AE"/>
<stop offset="1" stop-color="#FBC56D"/>
</linearGradient>
<linearGradient id="paint24_linear_202_10606" x1="8.24523" y1="7.7364" x2="7.38366" y2="6.87483" gradientUnits="userSpaceOnUse">
<stop stop-color="#FEF0AE"/>
<stop offset="1" stop-color="#FBC56D"/>
</linearGradient>
<linearGradient id="paint25_linear_202_10606" x1="8.2264" y1="6.05453" x2="7.44335" y2="5.27151" gradientUnits="userSpaceOnUse">
<stop stop-color="#FEF0AE"/>
<stop offset="1" stop-color="#FBC56D"/>
</linearGradient>
<linearGradient id="paint26_linear_202_10606" x1="6.61034" y1="7.76562" x2="5.73191" y2="6.88718" gradientUnits="userSpaceOnUse">
<stop stop-color="#FEF0AE"/>
<stop offset="1" stop-color="#FBC56D"/>
</linearGradient>
<linearGradient id="paint27_linear_202_10606" x1="7.00511" y1="9.54248" x2="7.00511" y2="12.8383" gradientUnits="userSpaceOnUse">
<stop stop-color="#DC8758" stop-opacity="0"/>
<stop offset="0.996" stop-color="#DC8758" stop-opacity="0.996"/>
<stop offset="1" stop-color="#DC8758"/>
</linearGradient>
</defs>
</svg>
