<svg width="24" height="24" viewBox="0 0 24 24" fill="none" xmlns="http://www.w3.org/2000/svg">
<path d="M8.73702 21H6.01257C5.71442 21 5.41919 20.9413 5.14373 20.8272C4.86828 20.7131 4.61799 20.5458 4.40717 20.335C4.19634 20.1242 4.02911 19.8739 3.91501 19.5985C3.80091 19.323 3.74219 19.0278 3.74219 18.7296V16.0052C3.74219 15.7509 3.94198 15.5511 4.19626 15.5511C4.45055 15.5511 4.65034 15.7509 4.65034 16.0052V18.7296C4.65034 19.4834 5.2588 20.0918 6.01257 20.0918H8.73702C8.9913 20.0918 9.1911 20.2916 9.1911 20.5459C9.1911 20.8002 8.9913 21 8.73702 21ZM5.10442 8.28588C4.85013 8.28588 4.65034 8.08608 4.65034 7.8318C4.65034 6.07907 6.07614 4.65327 7.82887 4.65327C8.08315 4.65327 8.28295 4.85306 8.28295 5.10734C8.28295 5.36163 8.08315 5.56142 7.82887 5.56142C7.22673 5.56142 6.64925 5.80062 6.22347 6.2264C5.79769 6.65218 5.55849 7.22966 5.55849 7.8318C5.55849 8.08608 5.3587 8.28588 5.10442 8.28588ZM18.7267 21H16.0022C15.748 21 15.5482 20.8002 15.5482 20.5459C15.5482 20.2916 15.748 20.0918 16.0022 20.0918H18.7267C19.4805 20.0918 20.0889 19.4834 20.0889 18.7296V16.0052C20.0889 15.7509 20.2887 15.5511 20.543 15.5511C20.7973 15.5511 20.9971 15.7509 20.9971 16.0052V18.7296C20.9971 19.3318 20.7579 19.9092 20.3321 20.335C19.9063 20.7608 19.3288 21 18.7267 21ZM20.543 9.19403C20.2887 9.19403 20.0889 8.99423 20.0889 8.73995V6.0155C20.0889 5.26173 19.4805 4.65327 18.7267 4.65327H16.0022C15.748 4.65327 15.5482 4.45348 15.5482 4.19919C15.5482 3.94491 15.748 3.74512 16.0022 3.74512H18.7267C19.3288 3.74512 19.9063 3.98432 20.3321 4.4101C20.7579 4.83587 20.9971 5.41335 20.9971 6.0155V8.73995C20.9971 8.99423 20.7973 9.19403 20.543 9.19403Z" fill="#393939"/>
<path d="M18.4299 16.541L15.097 13.2081C14.6883 12.7631 14.0708 12.8085 13.5986 12.9629L11.8277 11.192C14.534 8.05884 12.1728 2.94594 7.99527 3.00043C6.67129 3.00283 5.40223 3.52984 4.46604 4.46604C3.52984 5.40223 3.00283 6.67129 3.00043 7.99527C2.94594 12.1818 8.05884 14.543 11.192 11.8277L12.9629 13.5986C12.7903 14.0617 12.7812 14.7065 13.2081 15.097L16.541 18.4299C16.7862 18.6751 17.104 18.8114 17.4491 18.8114C18.5662 18.8386 19.2745 17.3401 18.4299 16.5501V16.541ZM7.99527 12.0819C2.59176 11.9094 2.59176 4.08113 7.99527 3.90858C13.3988 4.08113 13.3988 11.9094 7.99527 12.0819ZM17.8215 17.7488C17.658 17.9577 17.3401 18.0213 17.1404 17.8215L13.8074 14.4886C13.3988 14.089 14.089 13.3988 14.4886 13.8074L17.8215 17.1404C17.9849 17.3038 17.9849 17.5854 17.8215 17.7488Z" fill="#393939"/>
</svg>
