<svg width="32" height="32" viewBox="0 0 32 32" fill="none" xmlns="http://www.w3.org/2000/svg">
<g clip-path="url(#clip0_137_162007)">
<path d="M14.0371 8.50879C15.1853 7.71045 16.7435 7.76716 17.833 8.67969L24.4951 14.2607L24.6406 14.3965C24.9618 14.7292 25.1577 15.1677 25.1904 15.6318L25.1934 15.833C25.1584 16.8104 24.3989 17.6233 23.4092 17.7119V23.0947L23.3984 23.2949C23.2954 24.281 22.4636 25.0497 21.4541 25.0498H17.3066V20.2979C17.3066 19.4768 16.6403 18.8106 15.8193 18.8105C14.9983 18.8105 14.332 19.4768 14.332 20.2979V25.0459H10.1875C9.10776 25.042 8.23362 24.1682 8.2334 23.0918V17.708C7.7862 17.6688 7.36559 17.4781 7.04395 17.165L6.9082 17.0186C6.21297 16.1924 6.32165 14.9559 7.15137 14.2607L13.8125 8.67969L14.0371 8.50879Z" fill="#8E121E" stroke="#8E121E" stroke-width="0.1"/>
</g>
<defs>
<clipPath id="clip0_137_162007">
<rect width="20" height="20" fill="white" transform="translate(5.5 6)"/>
</clipPath>
</defs>
</svg>
