<svg width="19" height="19" viewBox="0 0 19 19" fill="none" xmlns="http://www.w3.org/2000/svg">
<path d="M16.1006 1.41602C16.5599 1.32285 17.0108 1.64855 17.0527 2.12891L17.1904 3.70117H17.6338C18.0739 3.70117 18.4316 4.05892 18.4316 4.49902V17.4199C18.4316 17.86 18.0739 18.2178 17.6338 18.2178H3.04785C3.02694 18.2178 3.00702 18.2159 2.98828 18.2119L2.93555 18.1953L2.90234 18.1787L2.90137 18.1777L2.84082 18.1367L2.81152 18.1045L2.77344 18.0479L2.75781 18.0098V18.0088L2.75586 18.0059C2.75369 18.0014 2.74852 17.9891 2.74512 17.9736H2.74414L0.418945 7.30762C0.37644 7.11463 0.406837 6.91277 0.504883 6.74121L0.589844 6.62012C0.684668 6.50872 0.809272 6.42474 0.950195 6.37891L2.7373 5.79297V4.49902C2.7373 4.05907 3.09526 3.70141 3.53516 3.70117H9.11621L16.0088 1.44043L16.1006 1.41602ZM3.4209 4.35352C3.40222 4.417 3.38635 4.53224 3.37402 4.7373C3.36183 4.94035 3.35356 5.22444 3.34863 5.62109C3.32902 7.20179 3.35812 10.5443 3.3584 17.5967H17.6338C17.7312 17.5967 17.8105 17.5173 17.8105 17.4199V4.49902C17.8105 4.40163 17.7312 4.32227 17.6338 4.32227H3.53516C3.50403 4.32223 3.47425 4.31816 3.45703 4.31641C3.44779 4.31547 3.44149 4.31457 3.43652 4.31445C3.43316 4.32033 3.42719 4.33219 3.4209 4.35352ZM1.14355 6.96973H1.14062C1.12065 6.97651 1.10204 6.98689 1.08594 7L1.04492 7.0498C1.02325 7.0877 1.01602 7.13217 1.02539 7.1748L2.7373 15.0225V6.44629L1.14355 6.96973ZM16.2031 2.03027H16.2021L11.1113 3.7002H16.5664L16.4336 2.18262C16.4235 2.06961 16.3113 1.99503 16.2031 2.03027Z" fill="#393939" stroke="#393939" stroke-width="0.2"/>
<path d="M15.5586 14.251L15.6172 14.2578C15.6745 14.2702 15.7278 14.2993 15.7695 14.3418C15.8249 14.3983 15.8555 14.4746 15.8555 14.5537C15.8554 14.6329 15.825 14.7091 15.7695 14.7656C15.714 14.8222 15.6379 14.854 15.5586 14.8555H6.16309C6.10344 14.8544 6.04556 14.836 5.99707 14.8027L5.95215 14.7656C5.89667 14.7091 5.86531 14.6329 5.86523 14.5537C5.86523 14.4746 5.89676 14.3983 5.95215 14.3418L5.99707 14.3037C6.04552 14.2705 6.10351 14.2521 6.16309 14.251H15.5586ZM15.5586 13.001L15.6172 13.0078C15.6746 13.0202 15.7278 13.0493 15.7695 13.0918C15.825 13.1483 15.8554 13.2245 15.8555 13.3037C15.8555 13.3829 15.8249 13.4591 15.7695 13.5156C15.714 13.5722 15.6379 13.605 15.5586 13.6064H6.16309C6.10355 13.6054 6.0455 13.5869 5.99707 13.5537L5.95215 13.5156C5.8967 13.4591 5.86523 13.3829 5.86523 13.3037C5.86526 13.2245 5.89666 13.1483 5.95215 13.0918L5.99707 13.0537C6.04548 13.0206 6.10359 13.0021 6.16309 13.001H15.5586ZM15.5586 11.752L15.6172 11.7588C15.6745 11.7712 15.7279 11.7994 15.7695 11.8418C15.825 11.8983 15.8554 11.9746 15.8555 12.0537C15.8555 12.1328 15.8248 12.2091 15.7695 12.2656C15.714 12.3222 15.6379 12.355 15.5586 12.3564H10.9463C10.8867 12.3554 10.8287 12.3369 10.7803 12.3037L10.7354 12.2656C10.68 12.2091 10.6484 12.1328 10.6484 12.0537C10.6485 11.9746 10.6799 11.8983 10.7354 11.8418L10.7803 11.8047C10.8288 11.7714 10.8867 11.753 10.9463 11.752H15.5586ZM9.44238 8.00293L9.50195 8.00879C9.55992 8.02039 9.61377 8.04848 9.65625 8.09082L9.69434 8.1377C9.72704 8.18686 9.74503 8.24478 9.74512 8.30469V11.959L9.73926 12.0186C9.73152 12.0573 9.71623 12.0941 9.69434 12.127L9.65625 12.1729C9.6137 12.2154 9.5601 12.2442 9.50195 12.2559L9.44238 12.2617H5.78809C5.72817 12.2616 5.67026 12.2436 5.62109 12.2109L5.57422 12.1729C5.51772 12.1162 5.48635 12.039 5.48633 11.959V8.30469L5.49219 8.24609C5.50379 8.18787 5.53162 8.13342 5.57422 8.09082L5.62109 8.05371C5.67029 8.02096 5.72812 8.00301 5.78809 8.00293H9.44238ZM6.09082 11.6572H9.14062V8.60742H6.09082V11.6572ZM15.5586 10.502L15.6172 10.5088C15.6745 10.5212 15.7278 10.5503 15.7695 10.5928C15.8249 10.6493 15.8555 10.7255 15.8555 10.8047C15.8554 10.8839 15.825 10.9601 15.7695 11.0166C15.714 11.0732 15.6379 11.106 15.5586 11.1074H10.9463C10.8868 11.1063 10.8287 11.0878 10.7803 11.0547L10.7354 11.0166C10.6799 10.9601 10.6485 10.8839 10.6484 10.8047C10.6484 10.7255 10.6799 10.6493 10.7354 10.5928L10.7803 10.5547C10.8287 10.5215 10.8867 10.503 10.9463 10.502H15.5586ZM15.5586 9.25195L15.6172 9.25879C15.6746 9.27117 15.7278 9.3003 15.7695 9.34277L15.8066 9.38867C15.8387 9.43758 15.8555 9.49536 15.8555 9.55469C15.8555 9.614 15.8387 9.67179 15.8066 9.7207L15.7695 9.7666C15.714 9.82317 15.6379 9.85597 15.5586 9.85742H10.9463C10.8868 9.85633 10.8287 9.83785 10.7803 9.80469L10.7354 9.7666C10.6799 9.71005 10.6484 9.6339 10.6484 9.55469C10.6485 9.47547 10.6799 9.39932 10.7354 9.34277L10.7803 9.30469C10.8287 9.27156 10.8868 9.25304 10.9463 9.25195H15.5586ZM15.5586 8.00293L15.6172 8.00977C15.6745 8.02216 15.7279 8.05033 15.7695 8.09277L15.8066 8.13867C15.8387 8.18755 15.8554 8.24537 15.8555 8.30469C15.8555 8.38379 15.8248 8.46007 15.7695 8.5166C15.714 8.57317 15.6379 8.60597 15.5586 8.60742H10.9463C10.8867 8.60633 10.8287 8.5879 10.7803 8.55469L10.7354 8.5166C10.68 8.46006 10.6484 8.38383 10.6484 8.30469C10.6485 8.22553 10.6799 8.14926 10.7354 8.09277L10.7803 8.05566C10.8288 8.02239 10.8867 8.00402 10.9463 8.00293H15.5586Z" fill="#393939" stroke="#393939" stroke-width="0.2"/>
</svg>
