<svg width="23" height="23" viewBox="0 0 23 23" fill="none" xmlns="http://www.w3.org/2000/svg">
<mask id="path-1-outside-1_137_162063" maskUnits="userSpaceOnUse" x="1.875" y="1.95508" width="19" height="19" fill="black">
<rect fill="white" x="1.875" y="1.95508" width="19" height="19"/>
<path d="M8.69658 2.95508H4.68335C3.68549 2.95508 2.875 3.76557 2.875 4.76343C2.875 4.81207 2.88458 4.86023 2.90319 4.90517C2.92181 4.95011 2.94909 4.99094 2.98348 5.02533C3.01788 5.05972 3.05871 5.08701 3.10364 5.10562C3.14858 5.12423 3.19675 5.13381 3.24539 5.13381C3.29402 5.13381 3.34219 5.12423 3.38713 5.10562C3.43206 5.08701 3.47289 5.05972 3.50729 5.02533C3.54168 4.99094 3.56896 4.95011 3.58758 4.90517C3.60619 4.86023 3.61577 4.81207 3.61577 4.76343C3.61577 4.17517 4.09509 3.69585 4.68335 3.69585H8.69658C9.28484 3.69585 9.76416 4.17517 9.76416 4.76343V8.77666C9.76416 9.36492 9.28484 9.84424 8.69658 9.84424H4.68335C4.09509 9.84424 3.61577 9.36492 3.61577 8.77666V6.34955C3.61577 6.30091 3.60619 6.25274 3.58758 6.20781C3.56896 6.16287 3.54168 6.12204 3.50729 6.08765C3.47289 6.05325 3.43206 6.02597 3.38713 6.00736C3.34219 5.98874 3.29402 5.97916 3.24539 5.97916C3.19675 5.97916 3.14858 5.98874 3.10364 6.00736C3.05871 6.02597 3.01788 6.05325 2.98348 6.08765C2.94909 6.12204 2.92181 6.16287 2.90319 6.20781C2.88458 6.25274 2.875 6.30091 2.875 6.34955V8.77666C2.875 9.77452 3.68549 10.585 4.68335 10.585H8.69658C9.69444 10.585 10.5049 9.77452 10.5049 8.77666V4.76343C10.5049 3.76993 9.69008 2.95508 8.69658 2.95508ZM18.3222 2.95508H14.309C13.3111 2.95508 12.5007 3.76557 12.5007 4.76343V8.77666C12.5007 9.77452 13.3111 10.585 14.309 10.585H18.3222C19.3201 10.585 20.1306 9.77452 20.1306 8.77666V4.76343C20.1306 3.76993 19.3201 2.95508 18.3222 2.95508ZM19.3898 8.77666C19.3898 9.36492 18.9105 9.84424 18.3222 9.84424H14.309C13.7207 9.84424 13.2414 9.36492 13.2414 8.77666V4.76343C13.2414 4.17517 13.7207 3.69585 14.309 3.69585H18.3222C18.9105 3.69585 19.3898 4.17517 19.3898 4.76343V8.77666ZM8.69658 12.4151H4.68335C3.68549 12.4151 2.875 13.2256 2.875 14.2235V18.2367C2.875 19.2346 3.68549 20.0451 4.68335 20.0451H8.69658C9.69444 20.0451 10.5049 19.2346 10.5049 18.2367V14.2235C10.5049 13.2256 9.69008 12.4151 8.69658 12.4151ZM9.76416 18.2324C9.76416 18.8206 9.28484 19.3 8.69658 19.3H4.68335C4.09509 19.3 3.61577 18.8206 3.61577 18.2324V14.2191C3.61577 13.6309 4.09509 13.1516 4.68335 13.1516H8.69658C9.28484 13.1516 9.76416 13.6309 9.76416 14.2191V18.2324ZM19.4813 13.0688H13.1499C13.0517 13.0688 12.9575 13.1078 12.888 13.1773C12.8186 13.2467 12.7795 13.3409 12.7795 13.4392C12.7795 13.5374 12.8186 13.6316 12.888 13.7011C12.9575 13.7705 13.0517 13.8095 13.1499 13.8095H19.4813C19.5796 13.8095 19.6738 13.7705 19.7432 13.7011C19.8127 13.6316 19.8517 13.5374 19.8517 13.4392C19.8517 13.3409 19.8127 13.2467 19.7432 13.1773C19.6738 13.1078 19.5796 13.0688 19.4813 13.0688ZM19.4813 18.6507H13.1499C13.1013 18.6507 13.0531 18.6603 13.0082 18.6789C12.9632 18.6975 12.9224 18.7248 12.888 18.7592C12.8536 18.7936 12.8263 18.8344 12.8077 18.8793C12.7891 18.9243 12.7795 18.9724 12.7795 19.0211C12.7795 19.0697 12.7891 19.1179 12.8077 19.1628C12.8263 19.2078 12.8536 19.2486 12.888 19.283C12.9224 19.3174 12.9632 19.3447 13.0082 19.3633C13.0531 19.3819 13.1013 19.3915 13.1499 19.3915H19.4813C19.53 19.3915 19.5781 19.3819 19.6231 19.3633C19.668 19.3447 19.7088 19.3174 19.7432 19.283C19.7776 19.2486 19.8049 19.2078 19.8235 19.1628C19.8421 19.1179 19.8517 19.0697 19.8517 19.0211C19.8517 18.9724 19.8421 18.9243 19.8235 18.8793C19.8049 18.8344 19.7776 18.7936 19.7432 18.7592C19.7088 18.7248 19.668 18.6975 19.6231 18.6789C19.5781 18.6603 19.53 18.6507 19.4813 18.6507ZM19.4813 15.8575H13.1499C13.0517 15.8575 12.9575 15.8966 12.888 15.966C12.8186 16.0355 12.7795 16.1297 12.7795 16.2279C12.7795 16.3262 12.8186 16.4204 12.888 16.4898C12.9575 16.5593 13.0517 16.5983 13.1499 16.5983H19.4813C19.5796 16.5983 19.6738 16.5593 19.7432 16.4898C19.8127 16.4204 19.8517 16.3262 19.8517 16.2279C19.8517 16.1297 19.8127 16.0355 19.7432 15.966C19.6738 15.8966 19.5796 15.8575 19.4813 15.8575Z"/>
</mask>
<path d="M8.69658 2.95508H4.68335C3.68549 2.95508 2.875 3.76557 2.875 4.76343C2.875 4.81207 2.88458 4.86023 2.90319 4.90517C2.92181 4.95011 2.94909 4.99094 2.98348 5.02533C3.01788 5.05972 3.05871 5.08701 3.10364 5.10562C3.14858 5.12423 3.19675 5.13381 3.24539 5.13381C3.29402 5.13381 3.34219 5.12423 3.38713 5.10562C3.43206 5.08701 3.47289 5.05972 3.50729 5.02533C3.54168 4.99094 3.56896 4.95011 3.58758 4.90517C3.60619 4.86023 3.61577 4.81207 3.61577 4.76343C3.61577 4.17517 4.09509 3.69585 4.68335 3.69585H8.69658C9.28484 3.69585 9.76416 4.17517 9.76416 4.76343V8.77666C9.76416 9.36492 9.28484 9.84424 8.69658 9.84424H4.68335C4.09509 9.84424 3.61577 9.36492 3.61577 8.77666V6.34955C3.61577 6.30091 3.60619 6.25274 3.58758 6.20781C3.56896 6.16287 3.54168 6.12204 3.50729 6.08765C3.47289 6.05325 3.43206 6.02597 3.38713 6.00736C3.34219 5.98874 3.29402 5.97916 3.24539 5.97916C3.19675 5.97916 3.14858 5.98874 3.10364 6.00736C3.05871 6.02597 3.01788 6.05325 2.98348 6.08765C2.94909 6.12204 2.92181 6.16287 2.90319 6.20781C2.88458 6.25274 2.875 6.30091 2.875 6.34955V8.77666C2.875 9.77452 3.68549 10.585 4.68335 10.585H8.69658C9.69444 10.585 10.5049 9.77452 10.5049 8.77666V4.76343C10.5049 3.76993 9.69008 2.95508 8.69658 2.95508ZM18.3222 2.95508H14.309C13.3111 2.95508 12.5007 3.76557 12.5007 4.76343V8.77666C12.5007 9.77452 13.3111 10.585 14.309 10.585H18.3222C19.3201 10.585 20.1306 9.77452 20.1306 8.77666V4.76343C20.1306 3.76993 19.3201 2.95508 18.3222 2.95508ZM19.3898 8.77666C19.3898 9.36492 18.9105 9.84424 18.3222 9.84424H14.309C13.7207 9.84424 13.2414 9.36492 13.2414 8.77666V4.76343C13.2414 4.17517 13.7207 3.69585 14.309 3.69585H18.3222C18.9105 3.69585 19.3898 4.17517 19.3898 4.76343V8.77666ZM8.69658 12.4151H4.68335C3.68549 12.4151 2.875 13.2256 2.875 14.2235V18.2367C2.875 19.2346 3.68549 20.0451 4.68335 20.0451H8.69658C9.69444 20.0451 10.5049 19.2346 10.5049 18.2367V14.2235C10.5049 13.2256 9.69008 12.4151 8.69658 12.4151ZM9.76416 18.2324C9.76416 18.8206 9.28484 19.3 8.69658 19.3H4.68335C4.09509 19.3 3.61577 18.8206 3.61577 18.2324V14.2191C3.61577 13.6309 4.09509 13.1516 4.68335 13.1516H8.69658C9.28484 13.1516 9.76416 13.6309 9.76416 14.2191V18.2324ZM19.4813 13.0688H13.1499C13.0517 13.0688 12.9575 13.1078 12.888 13.1773C12.8186 13.2467 12.7795 13.3409 12.7795 13.4392C12.7795 13.5374 12.8186 13.6316 12.888 13.7011C12.9575 13.7705 13.0517 13.8095 13.1499 13.8095H19.4813C19.5796 13.8095 19.6738 13.7705 19.7432 13.7011C19.8127 13.6316 19.8517 13.5374 19.8517 13.4392C19.8517 13.3409 19.8127 13.2467 19.7432 13.1773C19.6738 13.1078 19.5796 13.0688 19.4813 13.0688ZM19.4813 18.6507H13.1499C13.1013 18.6507 13.0531 18.6603 13.0082 18.6789C12.9632 18.6975 12.9224 18.7248 12.888 18.7592C12.8536 18.7936 12.8263 18.8344 12.8077 18.8793C12.7891 18.9243 12.7795 18.9724 12.7795 19.0211C12.7795 19.0697 12.7891 19.1179 12.8077 19.1628C12.8263 19.2078 12.8536 19.2486 12.888 19.283C12.9224 19.3174 12.9632 19.3447 13.0082 19.3633C13.0531 19.3819 13.1013 19.3915 13.1499 19.3915H19.4813C19.53 19.3915 19.5781 19.3819 19.6231 19.3633C19.668 19.3447 19.7088 19.3174 19.7432 19.283C19.7776 19.2486 19.8049 19.2078 19.8235 19.1628C19.8421 19.1179 19.8517 19.0697 19.8517 19.0211C19.8517 18.9724 19.8421 18.9243 19.8235 18.8793C19.8049 18.8344 19.7776 18.7936 19.7432 18.7592C19.7088 18.7248 19.668 18.6975 19.6231 18.6789C19.5781 18.6603 19.53 18.6507 19.4813 18.6507ZM19.4813 15.8575H13.1499C13.0517 15.8575 12.9575 15.8966 12.888 15.966C12.8186 16.0355 12.7795 16.1297 12.7795 16.2279C12.7795 16.3262 12.8186 16.4204 12.888 16.4898C12.9575 16.5593 13.0517 16.5983 13.1499 16.5983H19.4813C19.5796 16.5983 19.6738 16.5593 19.7432 16.4898C19.8127 16.4204 19.8517 16.3262 19.8517 16.2279C19.8517 16.1297 19.8127 16.0355 19.7432 15.966C19.6738 15.8966 19.5796 15.8575 19.4813 15.8575Z" fill="#393939"/>
<path d="M8.69658 2.95508H4.68335C3.68549 2.95508 2.875 3.76557 2.875 4.76343C2.875 4.81207 2.88458 4.86023 2.90319 4.90517C2.92181 4.95011 2.94909 4.99094 2.98348 5.02533C3.01788 5.05972 3.05871 5.08701 3.10364 5.10562C3.14858 5.12423 3.19675 5.13381 3.24539 5.13381C3.29402 5.13381 3.34219 5.12423 3.38713 5.10562C3.43206 5.08701 3.47289 5.05972 3.50729 5.02533C3.54168 4.99094 3.56896 4.95011 3.58758 4.90517C3.60619 4.86023 3.61577 4.81207 3.61577 4.76343C3.61577 4.17517 4.09509 3.69585 4.68335 3.69585H8.69658C9.28484 3.69585 9.76416 4.17517 9.76416 4.76343V8.77666C9.76416 9.36492 9.28484 9.84424 8.69658 9.84424H4.68335C4.09509 9.84424 3.61577 9.36492 3.61577 8.77666V6.34955C3.61577 6.30091 3.60619 6.25274 3.58758 6.20781C3.56896 6.16287 3.54168 6.12204 3.50729 6.08765C3.47289 6.05325 3.43206 6.02597 3.38713 6.00736C3.34219 5.98874 3.29402 5.97916 3.24539 5.97916C3.19675 5.97916 3.14858 5.98874 3.10364 6.00736C3.05871 6.02597 3.01788 6.05325 2.98348 6.08765C2.94909 6.12204 2.92181 6.16287 2.90319 6.20781C2.88458 6.25274 2.875 6.30091 2.875 6.34955V8.77666C2.875 9.77452 3.68549 10.585 4.68335 10.585H8.69658C9.69444 10.585 10.5049 9.77452 10.5049 8.77666V4.76343C10.5049 3.76993 9.69008 2.95508 8.69658 2.95508ZM18.3222 2.95508H14.309C13.3111 2.95508 12.5007 3.76557 12.5007 4.76343V8.77666C12.5007 9.77452 13.3111 10.585 14.309 10.585H18.3222C19.3201 10.585 20.1306 9.77452 20.1306 8.77666V4.76343C20.1306 3.76993 19.3201 2.95508 18.3222 2.95508ZM19.3898 8.77666C19.3898 9.36492 18.9105 9.84424 18.3222 9.84424H14.309C13.7207 9.84424 13.2414 9.36492 13.2414 8.77666V4.76343C13.2414 4.17517 13.7207 3.69585 14.309 3.69585H18.3222C18.9105 3.69585 19.3898 4.17517 19.3898 4.76343V8.77666ZM8.69658 12.4151H4.68335C3.68549 12.4151 2.875 13.2256 2.875 14.2235V18.2367C2.875 19.2346 3.68549 20.0451 4.68335 20.0451H8.69658C9.69444 20.0451 10.5049 19.2346 10.5049 18.2367V14.2235C10.5049 13.2256 9.69008 12.4151 8.69658 12.4151ZM9.76416 18.2324C9.76416 18.8206 9.28484 19.3 8.69658 19.3H4.68335C4.09509 19.3 3.61577 18.8206 3.61577 18.2324V14.2191C3.61577 13.6309 4.09509 13.1516 4.68335 13.1516H8.69658C9.28484 13.1516 9.76416 13.6309 9.76416 14.2191V18.2324ZM19.4813 13.0688H13.1499C13.0517 13.0688 12.9575 13.1078 12.888 13.1773C12.8186 13.2467 12.7795 13.3409 12.7795 13.4392C12.7795 13.5374 12.8186 13.6316 12.888 13.7011C12.9575 13.7705 13.0517 13.8095 13.1499 13.8095H19.4813C19.5796 13.8095 19.6738 13.7705 19.7432 13.7011C19.8127 13.6316 19.8517 13.5374 19.8517 13.4392C19.8517 13.3409 19.8127 13.2467 19.7432 13.1773C19.6738 13.1078 19.5796 13.0688 19.4813 13.0688ZM19.4813 18.6507H13.1499C13.1013 18.6507 13.0531 18.6603 13.0082 18.6789C12.9632 18.6975 12.9224 18.7248 12.888 18.7592C12.8536 18.7936 12.8263 18.8344 12.8077 18.8793C12.7891 18.9243 12.7795 18.9724 12.7795 19.0211C12.7795 19.0697 12.7891 19.1179 12.8077 19.1628C12.8263 19.2078 12.8536 19.2486 12.888 19.283C12.9224 19.3174 12.9632 19.3447 13.0082 19.3633C13.0531 19.3819 13.1013 19.3915 13.1499 19.3915H19.4813C19.53 19.3915 19.5781 19.3819 19.6231 19.3633C19.668 19.3447 19.7088 19.3174 19.7432 19.283C19.7776 19.2486 19.8049 19.2078 19.8235 19.1628C19.8421 19.1179 19.8517 19.0697 19.8517 19.0211C19.8517 18.9724 19.8421 18.9243 19.8235 18.8793C19.8049 18.8344 19.7776 18.7936 19.7432 18.7592C19.7088 18.7248 19.668 18.6975 19.6231 18.6789C19.5781 18.6603 19.53 18.6507 19.4813 18.6507ZM19.4813 15.8575H13.1499C13.0517 15.8575 12.9575 15.8966 12.888 15.966C12.8186 16.0355 12.7795 16.1297 12.7795 16.2279C12.7795 16.3262 12.8186 16.4204 12.888 16.4898C12.9575 16.5593 13.0517 16.5983 13.1499 16.5983H19.4813C19.5796 16.5983 19.6738 16.5593 19.7432 16.4898C19.8127 16.4204 19.8517 16.3262 19.8517 16.2279C19.8517 16.1297 19.8127 16.0355 19.7432 15.966C19.6738 15.8966 19.5796 15.8575 19.4813 15.8575Z" stroke="#393939" stroke-width="0.2" mask="url(#path-1-outside-1_137_162063)"/>
</svg>
