<svg width="26" height="26" viewBox="0 0 26 26" fill="none" xmlns="http://www.w3.org/2000/svg">
<g clip-path="url(#clip0_137_162042)">
<path d="M22.678 15.4328C22.678 20.2428 17.582 24.5024 13.417 24.5024C7.56935 24.5024 3.77309 21.3232 2.67226 15.6721C2.67226 15.4849 2.54561 14.5204 2.55521 14.3356C2.83344 8.97778 7.09454 4.67381 12.4342 4.32804C12.6639 4.31316 13.4708 4.39193 13.7042 4.39193C19.2799 5.047 22.678 9.58512 22.678 15.4328Z" fill="#FFE35C"/>
<path d="M13.1271 4.30566C12.8303 4.30566 12.5366 4.31851 12.2459 4.34243C16.7833 4.7502 20.3395 8.5624 20.3395 13.2059C20.3395 18.1214 16.3548 22.1061 11.4393 22.1061C6.7958 22.1061 2.98355 18.5499 2.57583 14.0126C2.55149 14.3057 2.53922 14.5997 2.53906 14.8938C2.53906 20.7414 7.27949 25.4819 13.1272 25.4819C18.9748 25.4819 23.7152 20.7414 23.7152 14.8938C23.7151 9.04609 18.9747 4.30566 13.1271 4.30566Z" fill="#FFAC62"/>
<path d="M17.6702 19.4396C20.1811 16.9288 20.1811 12.8579 17.6702 10.347C15.1593 7.83613 11.0884 7.83613 8.57757 10.347C6.06671 12.8579 6.06671 16.9288 8.57757 19.4396C11.0884 21.9505 15.1593 21.9505 17.6702 19.4396Z" fill="#FFF2A5"/>
<path d="M14.5876 15.1287C14.7183 14.3221 14.1702 13.5622 13.3635 13.4315C12.5568 13.3009 11.7969 13.8489 11.6663 14.6556C11.5356 15.4623 12.0837 16.2221 12.8904 16.3528C13.6971 16.4834 14.457 15.9354 14.5876 15.1287Z" fill="#FFF2A5"/>
<path d="M12.8226 16.6566V18.3933C12.5363 18.3512 12.2343 18.4391 12.0145 18.659C11.9856 18.6879 11.9627 18.7221 11.947 18.7599C11.9314 18.7976 11.9234 18.838 11.9234 18.8788C11.9234 18.9197 11.9314 18.9601 11.947 18.9978C11.9627 19.0355 11.9856 19.0698 12.0145 19.0987C12.0433 19.1276 12.0776 19.1505 12.1153 19.1661C12.153 19.1817 12.1935 19.1898 12.2343 19.1898C12.2751 19.1898 12.3155 19.1817 12.3533 19.1661C12.391 19.1505 12.4253 19.1276 12.4541 19.0987C12.5151 19.0379 12.5978 19.0037 12.6839 19.0037C12.77 19.0037 12.8527 19.0379 12.9137 19.0987C13.0982 19.2833 13.3407 19.3756 13.5831 19.3756C13.8256 19.3756 14.068 19.2833 14.2526 19.0987C14.2815 19.0698 14.3044 19.0355 14.32 18.9978C14.3356 18.9601 14.3437 18.9197 14.3437 18.8788C14.3437 18.838 14.3356 18.7976 14.32 18.7599C14.3044 18.7221 14.2815 18.6879 14.2526 18.659C14.2237 18.6301 14.1895 18.6072 14.1517 18.5916C14.114 18.576 14.0736 18.5679 14.0328 18.5679C13.9919 18.5679 13.9515 18.576 13.9138 18.5916C13.8761 18.6072 13.8418 18.6301 13.8129 18.659C13.7085 18.7634 13.5502 18.7814 13.4268 18.7139C13.4384 18.6809 13.4443 18.6463 13.4444 18.6114V16.6566C13.6886 16.6137 13.9211 16.5203 14.1271 16.3824L16.6976 18.9529C16.7264 18.9818 16.7606 19.0047 16.7984 19.0204C16.8361 19.036 16.8765 19.044 16.9174 19.044C16.9582 19.044 16.9987 19.036 17.0364 19.0204C17.0741 19.0047 17.1084 18.9818 17.1372 18.9529C17.1661 18.924 17.189 18.8897 17.2046 18.852C17.2203 18.8143 17.2283 18.7739 17.2283 18.733C17.2283 18.6922 17.2203 18.6518 17.2046 18.6141C17.189 18.5763 17.1661 18.5421 17.1372 18.5132L14.5764 15.9524C14.7281 15.7465 14.8338 15.5104 14.8863 15.2601H16.6542V15.9575C16.6542 16.0121 16.6686 16.0657 16.6959 16.1129C16.7232 16.1602 16.7624 16.1994 16.8097 16.2267C16.857 16.254 16.9106 16.2683 16.9651 16.2684C17.0197 16.2684 17.0733 16.254 17.1206 16.2267L18.8671 15.2184C18.9143 15.1911 18.9536 15.1519 18.9808 15.1046C19.0081 15.0574 19.0225 15.0038 19.0225 14.9492C19.0225 14.8946 19.0081 14.841 18.9808 14.7937C18.9536 14.7465 18.9143 14.7072 18.8671 14.6799L17.1206 13.6716C17.0733 13.6443 17.0197 13.6299 16.9651 13.6299C16.9105 13.6299 16.8569 13.6443 16.8096 13.6715C16.7624 13.6988 16.7231 13.7381 16.6958 13.7854C16.6685 13.8326 16.6542 13.8862 16.6542 13.9408V14.6383H14.9056C14.8677 14.374 14.7709 14.1217 14.6223 13.9L17.1371 11.3853C17.1947 11.3268 17.2269 11.2479 17.2266 11.1659C17.2263 11.0838 17.1936 11.0052 17.1356 10.9471C17.0775 10.8891 16.9989 10.8564 16.9169 10.856C16.8348 10.8557 16.7559 10.8879 16.6975 10.9455L14.1922 13.4507C13.9709 13.2877 13.715 13.1781 13.4443 13.1305V12.3113C13.885 12.1776 14.2068 11.7679 14.2068 11.2842C14.2068 10.9629 14.0642 10.6749 13.8398 10.478C14.0642 10.2812 14.2068 9.99319 14.2068 9.6719C14.2068 9.58943 14.1741 9.51034 14.1158 9.45203C14.0575 9.39372 13.9784 9.36096 13.8959 9.36096C13.8134 9.36096 13.7343 9.39372 13.676 9.45203C13.6177 9.51034 13.585 9.58943 13.585 9.6719C13.585 9.92093 13.3824 10.1235 13.1334 10.1235C12.8843 10.1235 12.6818 9.92093 12.6818 9.6719C12.6823 9.63073 12.6746 9.58988 12.6593 9.55169C12.6439 9.51351 12.621 9.47876 12.5921 9.44947C12.5632 9.42017 12.5288 9.39691 12.4908 9.38104C12.4528 9.36516 12.412 9.35699 12.3709 9.35699C12.3297 9.35699 12.2889 9.36516 12.251 9.38104C12.213 9.39691 12.1785 9.42017 12.1496 9.44947C12.1207 9.47876 12.0979 9.51351 12.0825 9.55169C12.0671 9.58988 12.0594 9.63073 12.06 9.6719C12.06 9.99319 12.2025 10.2812 12.427 10.478C12.2025 10.6749 12.06 10.9629 12.06 11.2842C12.06 11.7679 12.3818 12.1776 12.8224 12.3113V13.1305C12.5518 13.1781 12.2958 13.2877 12.0745 13.4507L9.56934 10.9455C9.54048 10.9167 9.5062 10.8937 9.46848 10.8781C9.43077 10.8625 9.39033 10.8544 9.3495 10.8544C9.30867 10.8544 9.26824 10.8625 9.23052 10.8781C9.1928 10.8937 9.15853 10.9167 9.12967 10.9455C9.10079 10.9744 9.07788 11.0087 9.06225 11.0464C9.04662 11.0841 9.03857 11.1245 9.03857 11.1654C9.03857 11.2062 9.04662 11.2466 9.06225 11.2844C9.07788 11.3221 9.10079 11.3563 9.12967 11.3852L11.6445 13.9C11.4959 14.1218 11.3991 14.374 11.3612 14.6383H9.46046C9.3268 14.1976 8.9171 13.8757 8.43336 13.8757C7.8415 13.8757 7.35995 14.3573 7.35995 14.9491C7.35995 15.541 7.8415 16.0225 8.43336 16.0225C8.9171 16.0225 9.3268 15.7007 9.46046 15.2601H11.3806C11.4331 15.5104 11.5388 15.7465 11.6905 15.9524L9.12967 18.5132C9.10079 18.5421 9.07788 18.5763 9.06225 18.6141C9.04662 18.6518 9.03857 18.6922 9.03857 18.733C9.03857 18.7739 9.04662 18.8143 9.06225 18.852C9.07788 18.8897 9.10079 18.924 9.12967 18.9529C9.1585 18.9818 9.19276 19.0047 9.23049 19.0204C9.26822 19.036 9.30867 19.044 9.3495 19.044C9.39034 19.044 9.43079 19.036 9.46852 19.0204C9.50624 19.0047 9.54051 18.9818 9.56934 18.9529L12.1398 16.3824C12.3459 16.5203 12.5784 16.6137 12.8226 16.6566ZM17.2761 14.4794L18.0898 14.9492L17.2761 15.419V14.4794ZM12.6819 11.2843C12.6819 11.0352 12.8845 10.8327 13.1335 10.8327C13.3826 10.8327 13.5851 11.0352 13.5851 11.2843C13.5851 11.5333 13.3826 11.7358 13.1335 11.7358C12.8845 11.7358 12.6819 11.5333 12.6819 11.2843ZM13.1335 13.7248C13.778 13.7248 14.3023 14.2491 14.3023 14.8936C14.3023 15.538 13.778 16.0623 13.1335 16.0623C12.489 16.0623 11.9647 15.538 11.9647 14.8936C11.9647 14.2491 12.489 13.7248 13.1335 13.7248ZM8.43351 15.4008C8.18448 15.4008 7.98191 15.1982 7.98191 14.9492C7.98191 14.7002 8.18448 14.4976 8.43351 14.4976C8.68254 14.4976 8.88511 14.7002 8.88511 14.9492C8.88511 15.1982 8.68254 15.4008 8.43351 15.4008ZM12.2758 6.09547H12.8226V7.31438C12.8226 7.39683 12.8553 7.47592 12.9136 7.53422C12.972 7.59253 13.051 7.62529 13.1335 7.62529C13.216 7.62529 13.295 7.59253 13.3533 7.53422C13.4116 7.47592 13.4444 7.39683 13.4444 7.31438V6.09547H13.9912C14.0323 6.096 14.0732 6.08835 14.1114 6.07296C14.1496 6.05757 14.1843 6.03475 14.2136 6.00583C14.2429 5.97691 14.2661 5.94246 14.282 5.90447C14.2979 5.86649 14.3061 5.82573 14.3061 5.78457C14.3061 5.7434 14.2979 5.70264 14.282 5.66466C14.2661 5.62668 14.2429 5.59223 14.2136 5.5633C14.1843 5.53438 14.1496 5.51156 14.1114 5.49617C14.0732 5.48079 14.0323 5.47313 13.9912 5.47366H12.2758C12.1933 5.47366 12.1142 5.50643 12.0559 5.56474C11.9976 5.62305 11.9649 5.70213 11.9649 5.78459C11.9649 5.86705 11.9977 5.94613 12.056 6.00443C12.1143 6.06273 12.1934 6.09548 12.2758 6.09547ZM4.51091 13.8758C3.91906 13.8758 3.4375 14.3573 3.4375 14.9492C3.4375 15.541 3.91906 16.0226 4.51091 16.0226C5.10277 16.0226 5.58433 15.541 5.58433 14.9492C5.58433 14.3573 5.10282 13.8758 4.51091 13.8758ZM4.51091 15.4008C4.26188 15.4008 4.05932 15.1982 4.05932 14.9492C4.05932 14.7002 4.26188 14.4976 4.51091 14.4976C4.75995 14.4976 4.96251 14.7002 4.96251 14.9492C4.96251 15.1982 4.75995 15.4008 4.51091 15.4008ZM22.5143 14.2598L20.8848 13.8336C20.8052 13.8135 20.721 13.8256 20.6503 13.8673C20.5797 13.909 20.5284 13.977 20.5076 14.0564C20.4869 14.1357 20.4983 14.2201 20.5395 14.2911C20.5807 14.362 20.6482 14.4138 20.7274 14.4352L21.31 14.5876V15.3108L20.7274 15.4632C20.6482 15.4846 20.5807 15.5364 20.5395 15.6074C20.4983 15.6783 20.4869 15.7627 20.5076 15.8421C20.5284 15.9214 20.5797 15.9894 20.6503 16.0311C20.721 16.0728 20.8052 16.0849 20.8848 16.0648L22.5143 15.6386C22.5809 15.6212 22.6397 15.5822 22.6818 15.5278C22.7238 15.4734 22.7466 15.4066 22.7466 15.3378V14.5607C22.7466 14.4192 22.6511 14.2956 22.5143 14.2598ZM22.1247 15.0977L21.9318 15.1482V14.7502L22.1247 14.8007V15.0977ZM13.6592 22.0738C13.5768 22.0738 13.4977 22.1066 13.4394 22.1649C13.3811 22.2232 13.3483 22.3023 13.3483 22.3847V22.668L12.824 22.1612C12.7946 22.1328 12.76 22.1105 12.722 22.0955C12.684 22.0805 12.6434 22.0731 12.6026 22.0738C12.5618 22.0745 12.5215 22.0833 12.484 22.0995C12.4466 22.1158 12.4127 22.1393 12.3843 22.1687C12.356 22.198 12.3336 22.2327 12.3187 22.2706C12.3037 22.3086 12.2963 22.3492 12.297 22.39C12.2977 22.4308 12.3064 22.4711 12.3227 22.5086C12.3389 22.546 12.3624 22.5799 12.3918 22.6083L12.813 23.0156C12.5467 23.1447 12.3523 23.3653 12.3523 23.6851C12.3523 24.4072 13.4088 24.5758 13.6207 24.6023C13.6644 24.6078 13.7088 24.6039 13.7509 24.5909C13.7931 24.5779 13.8319 24.5561 13.865 24.5269C13.898 24.4977 13.9245 24.4618 13.9426 24.4216C13.9608 24.3815 13.9701 24.3379 13.9701 24.2938V22.3847C13.9701 22.3023 13.9373 22.2232 13.879 22.1649C13.8207 22.1066 13.7417 22.0739 13.6592 22.0738ZM13.3483 23.9065C13.1334 23.8372 12.9741 23.7442 12.9741 23.6851C12.9741 23.5899 13.1836 23.5269 13.3483 23.5057V23.9065ZM7.05094 10.1589C7.09178 10.1589 7.13222 10.1509 7.16995 10.1353C7.20768 10.1196 7.24194 10.0967 7.27077 10.0678C7.29966 10.0389 7.32257 10.0047 7.3382 9.96694C7.35383 9.92922 7.36188 9.88879 7.36188 9.84796C7.36188 9.80713 7.35383 9.76669 7.3382 9.72897C7.32257 9.69125 7.29966 9.65698 7.27077 9.62812L6.50931 8.86656L7.05099 8.32487L7.81251 9.08634C7.84137 9.11522 7.87564 9.13813 7.91336 9.15376C7.95108 9.16939 7.99151 9.17744 8.03234 9.17744C8.07317 9.17744 8.1136 9.16939 8.15132 9.15376C8.18904 9.13813 8.22331 9.11522 8.25217 9.08634C8.28105 9.05748 8.30397 9.02321 8.3196 8.98549C8.33523 8.94777 8.34327 8.90734 8.34327 8.86651C8.34327 8.82568 8.33523 8.78525 8.3196 8.74753C8.30397 8.70981 8.28105 8.67554 8.25217 8.64667L7.27082 7.66533C7.24196 7.63644 7.20769 7.61353 7.16997 7.5979C7.13225 7.58227 7.09182 7.57422 7.05099 7.57422C7.01016 7.57422 6.96973 7.58227 6.93201 7.5979C6.89429 7.61353 6.86002 7.63644 6.83116 7.66533L5.84981 8.64667C5.82093 8.67554 5.79802 8.70981 5.78239 8.74753C5.76676 8.78525 5.75871 8.82568 5.75871 8.86651C5.75871 8.90734 5.76676 8.94777 5.78239 8.98549C5.79802 9.02321 5.82093 9.05748 5.84981 9.08634L6.83116 10.0677C6.85995 10.0967 6.8942 10.1196 6.93192 10.1353C6.96965 10.1509 7.0101 10.159 7.05094 10.1589ZM20.0925 20.5938L20.0421 20.5123C19.9438 20.353 19.803 20.2243 19.6355 20.1407C19.5646 20.1049 19.5064 20.048 19.4692 19.9778L19.361 19.7748C19.3419 19.7387 19.3158 19.7068 19.2842 19.6809C19.2527 19.6549 19.2164 19.6354 19.1773 19.6235C19.1383 19.6116 19.0972 19.6075 19.0566 19.6115C19.0159 19.6154 18.9765 19.6274 18.9405 19.6466C18.9044 19.6658 18.8725 19.6919 18.8466 19.7234C18.8206 19.7549 18.8011 19.7913 18.7892 19.8303C18.7773 19.8694 18.7732 19.9104 18.7772 19.951C18.7811 19.9917 18.7931 20.0311 18.8123 20.0672L18.9205 20.2702C19.0174 20.4531 19.1688 20.6015 19.3536 20.6949L19.3592 20.6978C19.4226 20.7298 19.4759 20.7787 19.5131 20.8391L19.5813 20.9494L19.0867 21.4441L18.3252 20.6826C18.2963 20.6537 18.2621 20.6308 18.2243 20.6152C18.1866 20.5995 18.1462 20.5915 18.1054 20.5915C18.0645 20.5915 18.0241 20.5995 17.9864 20.6152C17.9487 20.6308 17.9144 20.6537 17.8855 20.6826C17.8566 20.7115 17.8337 20.7457 17.8181 20.7834C17.8025 20.8212 17.7944 20.8616 17.7944 20.9024C17.7944 20.9433 17.8025 20.9837 17.8181 21.0214C17.8337 21.0591 17.8566 21.0934 17.8855 21.1223L18.8669 22.1036C18.8957 22.1325 18.93 22.1555 18.9677 22.1711C19.0054 22.1867 19.0459 22.1948 19.0867 22.1947C19.1275 22.1948 19.168 22.1867 19.2057 22.1711C19.2434 22.1555 19.2777 22.1325 19.3065 22.1036L20.2879 21.1223C20.3168 21.0934 20.3397 21.0591 20.3553 21.0214C20.3709 20.9837 20.379 20.9433 20.379 20.9024C20.379 20.8616 20.3709 20.8212 20.3553 20.7834C20.3397 20.7457 20.3168 20.7115 20.2879 20.6826C20.2334 20.6281 20.1637 20.5995 20.0925 20.5938ZM18.3549 8.62458C18.5341 8.62458 18.6799 8.77038 18.6799 8.94958C18.6799 9.47162 19.1046 9.89635 19.6267 9.89635H19.9114C19.9932 9.8953 20.0713 9.86209 20.1287 9.8039C20.1862 9.7457 20.2184 9.66722 20.2184 9.58544C20.2184 9.50366 20.1862 9.42518 20.1287 9.36699C20.0713 9.30879 19.9932 9.27558 19.9114 9.27453H19.6267C19.5405 9.27444 19.4579 9.24017 19.397 9.17925C19.3361 9.11833 19.3018 9.03574 19.3017 8.94958C19.3017 8.4275 18.877 8.00277 18.3549 8.00277C18.3137 8.00224 18.2729 8.00989 18.2347 8.02528C18.1965 8.04067 18.1618 8.06349 18.1325 8.09241C18.1032 8.12134 18.0799 8.15579 18.064 8.19377C18.0482 8.23175 18.04 8.27251 18.04 8.31368C18.04 8.35484 18.0482 8.3956 18.064 8.43358C18.0799 8.47156 18.1032 8.50602 18.1325 8.53494C18.1618 8.56386 18.1965 8.58668 18.2347 8.60207C18.2729 8.61746 18.3137 8.62511 18.3549 8.62458ZM7.4512 19.9167L6.46985 20.898C6.44097 20.9269 6.41806 20.9611 6.40243 20.9989C6.3868 21.0366 6.37875 21.077 6.37875 21.1178C6.37875 21.1587 6.3868 21.1991 6.40243 21.2368C6.41806 21.2745 6.44097 21.3088 6.46985 21.3377L7.02027 21.8881C7.0491 21.917 7.08336 21.94 7.12109 21.9556C7.15882 21.9712 7.19926 21.9792 7.2401 21.9792C7.28094 21.9792 7.32139 21.9712 7.35911 21.9556C7.39684 21.94 7.43111 21.917 7.45993 21.8881C7.48882 21.8592 7.51173 21.825 7.52736 21.7872C7.54299 21.7495 7.55104 21.7091 7.55104 21.6683C7.55104 21.6274 7.54299 21.587 7.52736 21.5493C7.51173 21.5116 7.48882 21.4773 7.45993 21.4484L7.1294 21.1178L7.89086 20.3563C7.91974 20.3275 7.94266 20.2932 7.95829 20.2555C7.97392 20.2178 7.98197 20.1773 7.98197 20.1365C7.98197 20.0957 7.97392 20.0552 7.95829 20.0175C7.94266 19.9798 7.91974 19.9455 7.89086 19.9167C7.862 19.8878 7.82772 19.8649 7.79 19.8493C7.75229 19.8336 7.71186 19.8256 7.67103 19.8256C7.63021 19.8256 7.58978 19.8336 7.55206 19.8493C7.51434 19.8649 7.48007 19.8878 7.4512 19.9167Z" fill="#8E121E"/>
<path d="M14.2512 20.0989C14.3088 20.0404 14.3409 19.9616 14.3406 19.8795C14.3403 19.7974 14.3076 19.7188 14.2495 19.6608C14.1915 19.6028 14.1128 19.57 14.0308 19.5697C13.9487 19.5695 13.8698 19.6016 13.8114 19.6592C13.75 19.7206 13.6684 19.7544 13.5817 19.7544C13.4949 19.7544 13.4133 19.7206 13.3519 19.6592C12.9827 19.29 12.3821 19.29 12.013 19.6592C11.9841 19.6881 11.9612 19.7224 11.9456 19.7601C11.9299 19.7978 11.9219 19.8382 11.9219 19.8791C11.9219 19.9199 11.9299 19.9603 11.9456 19.9981C11.9612 20.0358 11.9841 20.07 12.013 20.0989C12.0418 20.1278 12.0761 20.1507 12.1138 20.1663C12.1515 20.182 12.192 20.19 12.2328 20.19C12.2736 20.19 12.3141 20.182 12.3518 20.1663C12.3895 20.1507 12.4238 20.1278 12.4526 20.0989C12.5136 20.0381 12.5963 20.0039 12.6824 20.0039C12.7685 20.0039 12.8512 20.0381 12.9122 20.0989C12.9999 20.1871 13.1042 20.2571 13.2191 20.3047C13.334 20.3523 13.4573 20.3766 13.5817 20.3763C13.8346 20.3763 14.0723 20.2778 14.2512 20.0989Z" fill="#8E121E"/>
<path d="M19.8713 14.8937C19.8713 11.177 16.8477 8.15332 13.131 8.15332C9.41429 8.15332 6.39062 11.1771 6.39062 14.8937C6.39062 18.6104 9.41429 21.6341 13.131 21.6341C16.8477 21.6341 19.8713 18.6104 19.8713 14.8937ZM7.01244 14.8937C7.01244 11.5199 9.75722 8.77514 13.131 8.77514C16.5047 8.77514 19.2495 11.5199 19.2495 14.8937C19.2495 18.2675 16.5047 21.0122 13.131 21.0122C9.75722 21.0122 7.01244 18.2675 7.01244 14.8937Z" fill="#8E121E"/>
<path d="M20.983 7.0403C18.8854 4.94263 16.0963 3.78735 13.1297 3.78735C10.1631 3.78735 7.37405 4.94258 5.27638 7.0403C3.17871 9.13797 2.02344 11.927 2.02344 14.8936C2.02344 17.8602 3.17866 20.6492 5.27638 22.7469C7.37411 24.8447 10.1631 25.9999 13.1297 25.9999C16.0963 25.9999 18.8853 24.8447 20.983 22.7469C23.0807 20.6492 24.236 17.8602 24.236 14.8936C24.236 11.927 23.0807 9.13797 20.983 7.0403ZM13.1297 24.9635C7.57713 24.9635 3.05983 20.4462 3.05983 14.8936C3.05983 9.34104 7.57713 4.8237 13.1297 4.8237C18.6823 4.8237 23.1996 9.34099 23.1996 14.8936C23.1996 20.4462 18.6823 24.9635 13.1297 24.9635Z" fill="#8E121E"/>
<path d="M8.77076 7.85603C8.67977 7.85613 8.59036 7.83226 8.51153 7.78682C8.43269 7.74139 8.36722 7.67598 8.3217 7.5972C8.1784 7.34944 8.2631 7.03246 8.51081 6.88921C8.84084 6.69838 9.18235 6.52814 9.53339 6.37947C9.797 6.26795 10.101 6.39125 10.2125 6.6548C10.324 6.91836 10.2008 7.22243 9.9372 7.33395C9.62565 7.46585 9.32257 7.61693 9.02969 7.78631C8.95104 7.83198 8.86171 7.85604 8.77076 7.85603ZM4.71395 13.1181C4.66895 13.1181 4.6232 13.1121 4.5777 13.0998C4.30155 13.0247 4.13849 12.74 4.2136 12.4638C4.44506 11.6127 4.79785 10.7993 5.26111 10.0488C5.41133 9.80522 5.73049 9.72945 5.97419 9.87982C6.21773 10.03 6.2934 10.3493 6.14313 10.5929C5.73208 11.2589 5.41904 11.9805 5.21363 12.7357C5.15102 12.9664 4.94206 13.1181 4.71395 13.1181Z" fill="white"/>
<path d="M22.0115 0.126788L21.5859 1.32365C21.5677 1.37489 21.5316 1.41551 21.4861 1.43603L20.4227 1.9151C20.2725 1.98279 20.2725 2.22217 20.4227 2.28987L21.4861 2.76894C21.5316 2.78945 21.5677 2.83008 21.5859 2.88132L22.0115 4.07818C22.0717 4.24728 22.2843 4.24728 22.3445 4.07818L22.7701 2.88132C22.7883 2.83008 22.8244 2.78945 22.8699 2.76894L23.9333 2.28987C24.0835 2.22217 24.0835 1.98279 23.9333 1.9151L22.8699 1.43603C22.8244 1.41551 22.7883 1.37489 22.7701 1.32365L22.3445 0.126788C22.2843 -0.0422627 22.0717 -0.0422627 22.0115 0.126788ZM2.03562 3.42965L1.71986 4.31746C1.70635 4.3555 1.67959 4.38561 1.64582 4.40084L0.857036 4.75621C0.745571 4.80643 0.745571 4.98396 0.857036 5.03419L1.64582 5.38955C1.67959 5.40479 1.70635 5.4349 1.71986 5.47289L2.03562 6.36069C2.0802 6.48612 2.23798 6.48612 2.28257 6.36069L2.59833 5.47289C2.61183 5.43485 2.63859 5.40474 2.67236 5.38955L3.46115 5.03419C3.57256 4.98396 3.57256 4.80643 3.46115 4.75621L2.67236 4.40084C2.63859 4.38561 2.61183 4.3555 2.59833 4.31746L2.28257 3.42965C2.23793 3.30422 2.0802 3.30422 2.03562 3.42965Z" fill="#FFF2A5"/>
<path d="M9.0625 1.05054C9.0625 1.56384 9.47865 1.97999 9.99195 1.97999C10.5053 1.97999 10.9214 1.56384 10.9214 1.05054C10.9214 0.537195 10.5053 0.121094 9.99195 0.121094C9.4786 0.121094 9.0625 0.537246 9.0625 1.05054Z" fill="#FFE35C"/>
<path d="M24.8339 6.88297C25.0486 6.88297 25.2226 6.70898 25.2226 6.49434C25.2226 6.27971 25.0486 6.10571 24.8339 6.10571C24.6193 6.10571 24.4453 6.27971 24.4453 6.49434C24.4453 6.70898 24.6193 6.88297 24.8339 6.88297Z" fill="#FFE35C"/>
</g>
<defs>
<clipPath id="clip0_137_162042">
<rect width="26" height="26" fill="white"/>
</clipPath>
</defs>
</svg>
