<svg width="24" height="25" viewBox="0 0 24 25" fill="none" xmlns="http://www.w3.org/2000/svg">
<path d="M15.8088 12.425C16.4953 11.5562 16.8707 10.4823 16.875 9.375C16.875 8.38609 16.5818 7.41939 16.0323 6.59715C15.4829 5.7749 14.702 5.13404 13.7884 4.7556C12.8748 4.37716 11.8695 4.27815 10.8995 4.47107C9.92964 4.664 9.03873 5.1402 8.33947 5.83947C7.6402 6.53873 7.164 7.42964 6.97107 8.39955C6.77815 9.36945 6.87716 10.3748 7.2556 11.2884C7.63404 12.202 8.2749 12.9829 9.09715 13.5323C9.91939 14.0818 10.8861 14.375 11.875 14.375C12.9823 14.3707 14.0562 13.9953 14.925 13.3088L18.3088 16.6925C18.4266 16.8063 18.5845 16.8693 18.7484 16.8679C18.9122 16.8665 19.069 16.8008 19.1849 16.6849C19.3008 16.569 19.3665 16.4122 19.3679 16.2484C19.3693 16.0845 19.3063 15.9266 19.1925 15.8088L15.8088 12.425ZM8.125 9.375C8.125 8.63332 8.34493 7.9083 8.75699 7.29161C9.16904 6.67493 9.75471 6.19428 10.4399 5.91045C11.1252 5.62662 11.8792 5.55236 12.6066 5.69706C13.334 5.84175 14.0022 6.1989 14.5267 6.72335C15.0511 7.2478 15.4083 7.91598 15.5529 8.64341C15.6976 9.37084 15.6234 10.1248 15.3395 10.8101C15.0557 11.4953 14.5751 12.081 13.9584 12.493C13.3417 12.9051 12.6167 13.125 11.875 13.125C10.8807 13.124 9.92749 12.7286 9.22445 12.0256C8.5214 11.3225 8.12599 10.3693 8.125 9.375ZM18.75 1.875H1.25C1.08424 1.875 0.925268 1.94085 0.808058 2.05806C0.690848 2.17527 0.625 2.33424 0.625 2.5C0.625 2.66576 0.690848 2.82473 0.808058 2.94194C0.925268 3.05915 1.08424 3.125 1.25 3.125H18.75C18.9158 3.125 19.0747 3.05915 19.1919 2.94194C19.3092 2.82473 19.375 2.66576 19.375 2.5C19.375 2.33424 19.3092 2.17527 19.1919 2.05806C19.0747 1.94085 18.9158 1.875 18.75 1.875ZM1.25 10.625H5C5.16576 10.625 5.32473 10.5592 5.44194 10.4419C5.55915 10.3247 5.625 10.1658 5.625 10C5.625 9.83424 5.55915 9.67527 5.44194 9.55806C5.32473 9.44085 5.16576 9.375 5 9.375H1.25C1.08424 9.375 0.925268 9.44085 0.808058 9.55806C0.690848 9.67527 0.625 9.83424 0.625 10C0.625 10.1658 0.690848 10.3247 0.808058 10.4419C0.925268 10.5592 1.08424 10.625 1.25 10.625ZM1.25 14.375H5C5.16576 14.375 5.32473 14.3092 5.44194 14.1919C5.55915 14.0747 5.625 13.9158 5.625 13.75C5.625 13.5842 5.55915 13.4253 5.44194 13.3081C5.32473 13.1908 5.16576 13.125 5 13.125H1.25C1.08424 13.125 0.925268 13.1908 0.808058 13.3081C0.690848 13.4253 0.625 13.5842 0.625 13.75C0.625 13.9158 0.690848 14.0747 0.808058 14.1919C0.925268 14.3092 1.08424 14.375 1.25 14.375ZM1.25 18.125H15C15.1658 18.125 15.3247 18.0592 15.4419 17.9419C15.5592 17.8247 15.625 17.6658 15.625 17.5C15.625 17.3342 15.5592 17.1753 15.4419 17.0581C15.3247 16.9408 15.1658 16.875 15 16.875H1.25C1.08424 16.875 0.925268 16.9408 0.808058 17.0581C0.690848 17.1753 0.625 17.3342 0.625 17.5C0.625 17.6658 0.690848 17.8247 0.808058 17.9419C0.925268 18.0592 1.08424 18.125 1.25 18.125ZM1.25 6.875H5C5.16576 6.875 5.32473 6.80915 5.44194 6.69194C5.55915 6.57473 5.625 6.41576 5.625 6.25C5.625 6.08424 5.55915 5.92527 5.44194 5.80806C5.32473 5.69085 5.16576 5.625 5 5.625H1.25C1.08424 5.625 0.925268 5.69085 0.808058 5.80806C0.690848 5.92527 0.625 6.08424 0.625 6.25C0.625 6.41576 0.690848 6.57473 0.808058 6.69194C0.925268 6.80915 1.08424 6.875 1.25 6.875Z" fill="#8E121E"/>
<g filter="url(#filter0_d_110_5969)">
<path d="M15.8088 12.4254C16.4953 11.5567 16.8707 10.4828 16.875 9.37544C16.875 8.38653 16.5818 7.41984 16.0323 6.59759C15.4829 5.77534 14.7021 5.13448 13.7884 4.75604C12.8748 4.37761 11.8695 4.27859 10.8996 4.47152C9.92965 4.66444 9.03873 5.14064 8.33947 5.83991C7.64021 6.53917 7.164 7.43008 6.97108 8.39999C6.77815 9.36989 6.87717 10.3752 7.2556 11.2889C7.63404 12.2025 8.2749 12.9834 9.09715 13.5328C9.9194 14.0822 10.8861 14.3754 11.875 14.3754C12.9823 14.3712 14.0562 13.9957 14.925 13.3092L18.3088 16.6929C18.4266 16.8068 18.5845 16.8698 18.7484 16.8684C18.9123 16.8669 19.069 16.8012 19.1849 16.6853C19.3008 16.5694 19.3665 16.4127 19.3679 16.2488C19.3693 16.0849 19.3063 15.9271 19.1925 15.8092L15.8088 12.4254ZM8.125 9.37544C8.125 8.63376 8.34494 7.90874 8.75699 7.29205C9.16905 6.67537 9.75472 6.19472 10.4399 5.91089C11.1252 5.62706 11.8792 5.5528 12.6066 5.6975C13.334 5.84219 14.0022 6.19934 14.5267 6.72379C15.0511 7.24824 15.4083 7.91642 15.5529 8.64385C15.6976 9.37128 15.6234 10.1253 15.3396 10.8105C15.0557 11.4957 14.5751 12.0814 13.9584 12.4935C13.3417 12.9055 12.6167 13.1254 11.875 13.1254C10.8807 13.1244 9.92749 12.729 9.22445 12.026C8.5214 11.3229 8.126 10.3697 8.125 9.37544Z" fill="#CE1B49"/>
</g>
<defs>
<filter id="filter0_d_110_5969" x="-4" y="0" width="28" height="28" filterUnits="userSpaceOnUse" color-interpolation-filters="sRGB">
<feFlood flood-opacity="0" result="BackgroundImageFix"/>
<feColorMatrix in="SourceAlpha" type="matrix" values="0 0 0 0 0 0 0 0 0 0 0 0 0 0 0 0 0 0 127 0" result="hardAlpha"/>
<feOffset dy="4"/>
<feGaussianBlur stdDeviation="2"/>
<feComposite in2="hardAlpha" operator="out"/>
<feColorMatrix type="matrix" values="0 0 0 0 0 0 0 0 0 0 0 0 0 0 0 0 0 0 0.25 0"/>
<feBlend mode="normal" in2="BackgroundImageFix" result="effect1_dropShadow_110_5969"/>
<feBlend mode="normal" in="SourceGraphic" in2="effect1_dropShadow_110_5969" result="shape"/>
</filter>
</defs>
</svg>
