<svg width="19" height="18" viewBox="0 0 19 18" fill="none" xmlns="http://www.w3.org/2000/svg">
<path d="M0 0.933775V15.6553C0 16.7459 0.884111 17.63 1.97475 17.63H14.7659V0.933775C14.7659 0.418059 14.3478 2.47126e-09 13.8321 2.47126e-09H0.933775C0.418059 -3.71154e-05 0 0.418059 0 0.933775Z" fill="url(#paint0_linear_202_14546)"/>
<path d="M10.2432 5.9248H0V15.6549C0 16.7456 0.884111 17.6297 1.97475 17.6297H10.2432V5.9248Z" fill="url(#paint1_linear_202_14546)"/>
<path d="M18.0176 17.6301C18.5205 17.6301 18.928 17.223 18.928 16.7197V5.4735C18.928 3.44404 17.2828 1.79883 15.2533 1.79883H5.0725C4.5697 1.79883 4.16207 2.20642 4.16207 2.70926V16.1009C4.16207 16.9455 3.47739 17.6302 2.63281 17.6302H18.0176V17.6301Z" fill="url(#paint2_linear_202_14546)"/>
<path d="M4.16207 12.8546V16.1006C4.16207 16.9452 3.47739 17.6299 2.63281 17.6299H18.0175C18.5204 17.6299 18.928 17.2228 18.928 16.7195V12.8546H4.16207Z" fill="url(#paint3_linear_202_14546)"/>
<path d="M18.9312 8.61384V5.47363C18.9312 5.39282 18.9277 5.3129 18.9225 5.2334H15.5508L18.9312 8.61384Z" fill="url(#paint4_linear_202_14546)"/>
<path d="M15.2578 1.79883V4.56315C15.2578 5.06606 15.6655 5.47372 16.1684 5.47372H18.9327C18.9327 3.44412 17.2874 1.79883 15.2578 1.79883Z" fill="url(#paint5_linear_202_14546)"/>
<path d="M8.84329 14.4504H12.6307C12.6957 14.4504 12.7581 14.4246 12.8041 14.3786C12.8501 14.3326 12.8759 14.2702 12.8759 14.2052C12.8759 14.1402 12.8501 14.0778 12.8041 14.0318C12.7581 13.9858 12.6957 13.96 12.6307 13.96H8.84329C8.77825 13.96 8.71587 13.9858 8.66988 14.0318C8.62389 14.0778 8.59805 14.1402 8.59805 14.2052C8.59805 14.2702 8.62389 14.3326 8.66988 14.3786C8.71587 14.4246 8.77825 14.4504 8.84329 14.4504ZM5.87805 14.4504H6.98984C7.05488 14.4504 7.11726 14.4246 7.16325 14.3786C7.20924 14.3326 7.23508 14.2702 7.23508 14.2052C7.23508 14.1402 7.20924 14.0778 7.16325 14.0318C7.11726 13.9858 7.05488 13.96 6.98984 13.96H5.87805C5.81301 13.96 5.75063 13.9858 5.70464 14.0318C5.65865 14.0778 5.63281 14.1402 5.63281 14.2052C5.63281 14.2702 5.65865 14.3326 5.70464 14.3786C5.75063 14.4246 5.81301 14.4504 5.87805 14.4504ZM7.8401 14.4504H8.11804C8.18308 14.4504 8.24546 14.4246 8.29145 14.3786C8.33744 14.3326 8.36328 14.2702 8.36328 14.2052C8.36328 14.1402 8.33744 14.0778 8.29145 14.0318C8.24546 13.9858 8.18308 13.96 8.11804 13.96H7.8401C7.77506 13.96 7.71268 13.9858 7.66669 14.0318C7.6207 14.0778 7.59486 14.1402 7.59486 14.2052C7.59486 14.2702 7.6207 14.3326 7.66669 14.3786C7.71268 14.4246 7.77506 14.4504 7.8401 14.4504ZM9.52704 15.2117H7.00621C6.94117 15.2117 6.87879 15.2376 6.8328 15.2836C6.78681 15.3295 6.76097 15.3919 6.76097 15.457C6.76097 15.522 6.78681 15.5844 6.8328 15.6304C6.87879 15.6764 6.94117 15.7022 7.00621 15.7022H9.52704C9.59208 15.7022 9.65445 15.6764 9.70045 15.6304C9.74644 15.5844 9.77227 15.522 9.77227 15.457C9.77227 15.3919 9.74644 15.3295 9.70045 15.2836C9.65445 15.2376 9.59208 15.2117 9.52704 15.2117ZM6.15603 15.2117H5.87809C5.81305 15.2117 5.75067 15.2376 5.70468 15.2836C5.65869 15.3295 5.63285 15.3919 5.63285 15.457C5.63285 15.522 5.65869 15.5844 5.70468 15.6304C5.75067 15.6764 5.81305 15.7022 5.87809 15.7022H6.15603C6.22107 15.7022 6.28344 15.6764 6.32944 15.6304C6.37543 15.5844 6.40126 15.522 6.40126 15.457C6.40126 15.3919 6.37543 15.3295 6.32944 15.2836C6.28344 15.2376 6.22107 15.2117 6.15603 15.2117ZM17.6482 13.96H16.6794C16.6143 13.96 16.5519 13.9858 16.5059 14.0318C16.46 14.0778 16.4341 14.1402 16.4341 14.2052C16.4341 14.2702 16.46 14.3326 16.5059 14.3786C16.5519 14.4246 16.6143 14.4504 16.6794 14.4504H17.6482C17.7133 14.4504 17.7757 14.4246 17.8217 14.3786C17.8676 14.3326 17.8935 14.2702 17.8935 14.2052C17.8935 14.1402 17.8676 14.0778 17.8217 14.0318C17.7757 13.9858 17.7133 13.96 17.6482 13.96ZM14.826 13.96H13.7142C13.6491 13.96 13.5867 13.9858 13.5407 14.0318C13.4948 14.0778 13.4689 14.1402 13.4689 14.2052C13.4689 14.2702 13.4948 14.3326 13.5407 14.3786C13.5867 14.4246 13.6491 14.4504 13.7142 14.4504H14.826C14.891 14.4504 14.9534 14.4246 14.9994 14.3786C15.0454 14.3326 15.0712 14.2702 15.0712 14.2052C15.0712 14.1402 15.0454 14.0778 14.9994 14.0318C14.9534 13.9858 14.891 13.96 14.826 13.96ZM15.9541 13.96H15.6762C15.6111 13.96 15.5488 13.9858 15.5028 14.0318C15.4568 14.0778 15.4309 14.1402 15.4309 14.2052C15.4309 14.2702 15.4568 14.3326 15.5028 14.3786C15.5488 14.4246 15.6111 14.4504 15.6762 14.4504H15.9541C16.0192 14.4504 16.0815 14.4246 16.1275 14.3786C16.1735 14.3326 16.1993 14.2702 16.1993 14.2052C16.1993 14.1402 16.1735 14.0778 16.1275 14.0318C16.0815 13.9858 16.0192 13.96 15.9541 13.96ZM13.216 15.2117H10.6952C10.6302 15.2117 10.5678 15.2376 10.5218 15.2836C10.4758 15.3295 10.45 15.3919 10.45 15.457C10.45 15.522 10.4758 15.5844 10.5218 15.6304C10.5678 15.6764 10.6302 15.7022 10.6952 15.7022H13.216C13.2811 15.7022 13.3435 15.6764 13.3894 15.6304C13.4354 15.5844 13.4613 15.522 13.4613 15.457C13.4613 15.3919 13.4354 15.3295 13.3894 15.2836C13.3435 15.2376 13.2811 15.2117 13.216 15.2117ZM14.3442 15.2117H14.0663C14.0012 15.2117 13.9388 15.2376 13.8928 15.2836C13.8469 15.3295 13.821 15.3919 13.821 15.457C13.821 15.522 13.8469 15.5844 13.8928 15.6304C13.9388 15.6764 14.0012 15.7022 14.0663 15.7022H14.3442C14.4092 15.7022 14.4716 15.6764 14.5176 15.6304C14.5636 15.5844 14.5894 15.522 14.5894 15.457C14.5894 15.3919 14.5636 15.3295 14.5176 15.2836C14.4716 15.2376 14.4092 15.2117 14.3442 15.2117Z" fill="#7BACDF"/>
<path d="M7.04819 5.28998L6.37821 4.06991V5.26886C6.37821 5.38166 6.24069 5.43811 6.10317 5.43811C5.96565 5.43811 5.82812 5.38166 5.82812 5.26886V3.02968C5.82812 2.91332 5.96565 2.86039 6.10317 2.86039C6.30064 2.86039 6.37469 2.87806 6.50868 3.13543L7.07996 4.22503V3.02612C7.07996 2.90972 7.21749 2.86035 7.35501 2.86035C7.49253 2.86035 7.63005 2.90972 7.63005 3.02612V5.26882C7.63005 5.38162 7.49253 5.43808 7.35501 5.43808C7.22803 5.43812 7.11519 5.41343 7.04819 5.28998Z" fill="url(#paint6_linear_202_14546)"/>
<path d="M8.56571 3.936H9.09464C9.20047 3.936 9.26037 4.03826 9.26037 4.1511C9.26037 4.24631 9.21104 4.35915 9.09464 4.35915H8.56571V4.9586H9.51073C9.61656 4.9586 9.6765 5.07144 9.6765 5.20191C9.6765 5.31475 9.62714 5.43816 9.51073 5.43816H8.25541C8.13555 5.43816 8.01562 5.38171 8.01562 5.26891V3.02977C8.01562 2.91693 8.13552 2.86047 8.25541 2.86047H9.51073C9.62714 2.86047 9.6765 2.98389 9.6765 3.09673C9.6765 3.22724 9.61656 3.34007 9.51073 3.34007H8.56571V3.936Z" fill="url(#paint7_linear_202_14546)"/>
<path d="M12.2485 5.27596C12.2062 5.39937 12.0475 5.45932 11.8853 5.45932C11.7267 5.45932 11.5574 5.39937 11.5292 5.27596L11.3458 4.44021L11.1625 5.27596C11.1342 5.39937 10.965 5.45932 10.8063 5.45932C10.6441 5.45932 10.4819 5.39937 10.4431 5.27596L9.74139 3.12494C9.73679 3.1101 9.73443 3.09467 9.73438 3.07914C9.73437 2.95924 9.93184 2.86047 10.0905 2.86047C10.1752 2.86047 10.2457 2.88872 10.2668 2.96277L10.8028 4.77171L11.0814 3.57986C11.1025 3.48465 11.226 3.43524 11.3458 3.43524C11.4657 3.43524 11.5892 3.48461 11.6103 3.57986L11.8889 4.77171L12.4249 2.96277C12.446 2.88872 12.5166 2.86047 12.6012 2.86047C12.7599 2.86047 12.9574 2.95921 12.9574 3.07914C12.9574 3.09677 12.9538 3.1144 12.9503 3.12494L12.2485 5.27596Z" fill="url(#paint8_linear_202_14546)"/>
<path d="M14.2165 4.74654C14.2165 4.31987 13.0987 4.39392 13.0987 3.56879C13.0987 3.03986 13.5606 2.83887 14.0014 2.83887C14.1883 2.83887 14.7031 2.87413 14.7031 3.14914C14.7031 3.24434 14.6397 3.43832 14.4845 3.43832C14.3576 3.43832 14.2905 3.30433 14.0014 3.30433C13.751 3.30433 13.6488 3.40659 13.6488 3.5159C13.6488 3.86852 14.7666 3.80148 14.7666 4.69012C14.7666 5.19793 14.3963 5.47298 13.885 5.47298C13.4231 5.47298 13.0352 5.2473 13.0352 5.01453C13.0352 4.89468 13.141 4.71837 13.2749 4.71837C13.4407 4.71837 13.5465 4.97927 13.8744 4.97927C14.0367 4.97923 14.2165 4.91576 14.2165 4.74654Z" fill="url(#paint9_linear_202_14546)"/>
<path d="M15.9641 6.15442H5.92411C5.84686 6.15442 5.77276 6.18511 5.71813 6.23974C5.6635 6.29437 5.63281 6.36846 5.63281 6.44572C5.63281 6.52298 5.6635 6.59707 5.71813 6.6517C5.77276 6.70633 5.84686 6.73702 5.92411 6.73702H15.9641C16.0023 6.73702 16.0402 6.72949 16.0755 6.71485C16.1109 6.70021 16.143 6.67875 16.17 6.6517C16.1971 6.62465 16.2185 6.59254 16.2332 6.5572C16.2478 6.52185 16.2554 6.48397 16.2554 6.44572C16.2554 6.40747 16.2478 6.36959 16.2332 6.33425C16.2186 6.2989 16.1971 6.26679 16.1701 6.23974C16.143 6.21269 16.1109 6.19123 16.0756 6.17659C16.0402 6.16195 16.0023 6.15442 15.9641 6.15442Z" fill="url(#paint10_linear_202_14546)"/>
<path d="M17.3357 12.8547H6.19058C5.88254 12.8547 5.63281 12.605 5.63281 12.2969V8.35074C5.63281 8.0427 5.88254 7.79297 6.19058 7.79297H17.3357C17.6438 7.79297 17.8935 8.0427 17.8935 8.35074V12.297C17.8935 12.605 17.6438 12.8547 17.3357 12.8547Z" fill="url(#paint11_linear_202_14546)"/>
<path d="M13.1024 10.8795C13.8406 10.8795 14.4391 10.281 14.4391 9.54278C14.4391 8.80453 13.8406 8.20605 13.1024 8.20605C12.3641 8.20605 11.7656 8.80453 11.7656 9.54278C11.7656 10.281 12.3641 10.8795 13.1024 10.8795Z" fill="url(#paint12_linear_202_14546)"/>
<path d="M8.7456 9.15627L6.30469 12.8546H13.0915L10.6506 9.15627C10.1995 8.47281 9.19669 8.47281 8.7456 9.15627Z" fill="url(#paint13_linear_202_14546)"/>
<path d="M17.2276 12.8551L15.5545 10.3202C15.1034 9.63674 14.1006 9.63674 13.6495 10.3202L11.9766 12.8551H17.2276Z" fill="url(#paint14_linear_202_14546)"/>
<defs>
<linearGradient id="paint0_linear_202_14546" x1="0" y1="0" x2="14.7659" y2="0" gradientUnits="userSpaceOnUse">
<stop stop-color="#EAF6FF"/>
<stop offset="1" stop-color="#B3DAFE"/>
</linearGradient>
<linearGradient id="paint1_linear_202_14546" x1="0" y1="5.9248" x2="10.2432" y2="5.9248" gradientUnits="userSpaceOnUse">
<stop stop-color="#7BACDF" stop-opacity="0"/>
<stop offset="1" stop-color="#7BACDF"/>
</linearGradient>
<linearGradient id="paint2_linear_202_14546" x1="2.63281" y1="1.79883" x2="18.928" y2="1.79883" gradientUnits="userSpaceOnUse">
<stop stop-color="#EAF6FF"/>
<stop offset="1" stop-color="#B3DAFE"/>
</linearGradient>
<linearGradient id="paint3_linear_202_14546" x1="2.63281" y1="12.8546" x2="18.928" y2="12.8546" gradientUnits="userSpaceOnUse">
<stop stop-color="#7BACDF" stop-opacity="0"/>
<stop offset="1" stop-color="#7BACDF"/>
</linearGradient>
<linearGradient id="paint4_linear_202_14546" x1="15.5508" y1="5.2334" x2="18.9312" y2="5.2334" gradientUnits="userSpaceOnUse">
<stop stop-color="#7BACDF" stop-opacity="0"/>
<stop offset="1" stop-color="#7BACDF"/>
</linearGradient>
<linearGradient id="paint5_linear_202_14546" x1="15.2578" y1="1.79883" x2="18.9327" y2="1.79883" gradientUnits="userSpaceOnUse">
<stop stop-color="#EAF6FF"/>
<stop offset="1" stop-color="#B3DAFE"/>
</linearGradient>
<linearGradient id="paint6_linear_202_14546" x1="5.82812" y1="2.86035" x2="7.63005" y2="2.86035" gradientUnits="userSpaceOnUse">
<stop stop-color="#5A5A5A"/>
<stop offset="1" stop-color="#444444"/>
</linearGradient>
<linearGradient id="paint7_linear_202_14546" x1="8.01562" y1="2.86047" x2="9.6765" y2="2.86047" gradientUnits="userSpaceOnUse">
<stop stop-color="#5A5A5A"/>
<stop offset="1" stop-color="#444444"/>
</linearGradient>
<linearGradient id="paint8_linear_202_14546" x1="9.73438" y1="2.86047" x2="12.9574" y2="2.86047" gradientUnits="userSpaceOnUse">
<stop stop-color="#5A5A5A"/>
<stop offset="1" stop-color="#444444"/>
</linearGradient>
<linearGradient id="paint9_linear_202_14546" x1="13.0352" y1="2.83887" x2="14.7666" y2="2.83887" gradientUnits="userSpaceOnUse">
<stop stop-color="#5A5A5A"/>
<stop offset="1" stop-color="#444444"/>
</linearGradient>
<linearGradient id="paint10_linear_202_14546" x1="10.6937" y1="4.24901" x2="12.0646" y2="16.2756" gradientUnits="userSpaceOnUse">
<stop stop-color="#FD4755"/>
<stop offset="1" stop-color="#C41926"/>
</linearGradient>
<linearGradient id="paint11_linear_202_14546" x1="11.2536" y1="7.85522" x2="12.9239" y2="15.9469" gradientUnits="userSpaceOnUse">
<stop stop-color="#B3DAFE"/>
<stop offset="1" stop-color="#0182FC"/>
</linearGradient>
<linearGradient id="paint12_linear_202_14546" x1="12.7463" y1="8.55259" x2="13.3" y2="10.0926" gradientUnits="userSpaceOnUse">
<stop stop-color="#FEE45A"/>
<stop offset="1" stop-color="#FEA613"/>
</linearGradient>
<linearGradient id="paint13_linear_202_14546" x1="6.30469" y1="8.64368" x2="13.0915" y2="8.64368" gradientUnits="userSpaceOnUse">
<stop stop-color="#BBEC6C"/>
<stop offset="1" stop-color="#78A91F"/>
</linearGradient>
<linearGradient id="paint14_linear_202_14546" x1="11.9766" y1="9.80762" x2="17.2276" y2="9.80762" gradientUnits="userSpaceOnUse">
<stop stop-color="#BBEC6C"/>
<stop offset="1" stop-color="#78A91F"/>
</linearGradient>
</defs>
</svg>
