<svg width="14" height="14" viewBox="0 0 14 14" fill="none" xmlns="http://www.w3.org/2000/svg">
<mask id="mask0_157_118613" style="mask-type:alpha" maskUnits="userSpaceOnUse" x="0" y="0" width="14" height="14">
<rect width="14" height="14" fill="#D9D9D9"/>
</mask>
<g mask="url(#mask0_157_118613)">
<path d="M5.2474 8.16675H11.0807L9.06823 5.54175L7.72656 7.29175L6.8224 6.12508L5.2474 8.16675ZM4.66406 10.5001C4.34323 10.5001 4.06858 10.3858 3.8401 10.1574C3.61163 9.9289 3.4974 9.65425 3.4974 9.33341V2.33341C3.4974 2.01258 3.61163 1.73793 3.8401 1.50946C4.06858 1.28098 4.34323 1.16675 4.66406 1.16675H11.6641C11.9849 1.16675 12.2595 1.28098 12.488 1.50946C12.7165 1.73793 12.8307 2.01258 12.8307 2.33341V9.33341C12.8307 9.65425 12.7165 9.9289 12.488 10.1574C12.2595 10.3858 11.9849 10.5001 11.6641 10.5001H4.66406ZM4.66406 9.33341H11.6641V2.33341H4.66406V9.33341ZM2.33073 12.8334C2.0099 12.8334 1.73524 12.7192 1.50677 12.4907C1.2783 12.2622 1.16406 11.9876 1.16406 11.6667V3.50008H2.33073V11.6667H10.4974V12.8334H2.33073ZM4.66406 2.33341H11.6641V9.33341H4.66406V2.33341Z" fill="#8E121E"/>
</g>
</svg>
