<svg width="18" height="20" viewBox="0 0 18 20" fill="none" xmlns="http://www.w3.org/2000/svg">
<path d="M9.1615 0.00149283C4.15934 -0.0884287 0.075692 3.8953 0.0470253 8.89816C0.0323194 11.4646 1.09777 13.7822 2.8153 15.4232C3.08899 15.6847 3.53463 15.4118 3.42699 15.0489C3.29782 14.6128 3.2324 14.1603 3.23275 13.7055V13.703C3.23275 13.4131 3.14393 13.1315 2.98455 12.8893C2.22126 11.7295 1.81157 10.3715 1.81157 8.95059C1.81157 7.03138 2.55903 5.22667 3.91628 3.86941C5.27354 2.5122 7.07785 1.76471 8.99746 1.76471C10.9171 1.76471 12.7214 2.51216 14.0786 3.86941C15.4359 5.22667 16.1833 7.03138 16.1833 8.95059C16.1833 10.3715 15.7737 11.7295 15.0104 12.8893C14.851 13.1315 14.7622 13.4131 14.7622 13.703V13.7055C14.7622 14.1718 14.6943 14.6226 14.568 15.0484C14.4602 15.4122 14.9069 15.6838 15.1813 15.4216C16.8861 13.7919 17.948 11.4953 17.948 8.95059C17.948 4.06228 14.0289 0.088983 9.1615 0.00149283Z" fill="url(#paint0_linear_202_14574)"/>
<path d="M8.99834 14.406C12.0113 14.406 14.4537 11.9635 14.4537 8.95061C14.4537 5.93769 12.0113 3.49524 8.99834 3.49524C5.98542 3.49524 3.54297 5.93769 3.54297 8.95061C3.54297 11.9635 5.98542 14.406 8.99834 14.406Z" fill="url(#paint1_linear_202_14574)"/>
<path d="M2.81466 15.4228C3.08835 15.6843 3.534 15.4114 3.42635 15.0485C3.29719 14.6124 3.23176 14.1599 3.23212 13.7051V13.7026C3.23212 13.4127 3.14329 13.1311 2.98392 12.889C2.26831 11.8016 1.86349 10.5401 1.81572 9.21582H0.0507812C0.121919 11.6553 1.16843 13.8499 2.81466 15.4228Z" fill="url(#paint2_linear_202_14574)"/>
<path d="M16.1778 9.21586C16.13 10.5401 15.7252 11.8017 15.0096 12.889C14.8502 13.1311 14.7614 13.4128 14.7614 13.7026V13.7052C14.7617 14.1598 14.6964 14.6121 14.5673 15.0481C14.4594 15.4119 14.9061 15.6835 15.1805 15.4212C16.8258 13.8484 17.872 11.6545 17.9431 9.21582H16.1778V9.21586Z" fill="url(#paint3_linear_202_14574)"/>
<path d="M11.8203 13.6193C13.3979 12.6631 14.4522 10.93 14.4522 8.95057C14.4522 8.75277 14.4414 8.55751 14.4208 8.36516L11.8203 5.76465V13.6193Z" fill="url(#paint4_linear_202_14574)"/>
<path d="M3.58203 9.60742C3.90662 12.3104 6.20744 14.4056 8.99788 14.4056C11.7883 14.4056 14.0891 12.3104 14.4137 9.60742H3.58203Z" fill="url(#paint5_linear_202_14574)"/>
<path d="M10.1019 18.8959V16.0127H7.89453V18.8959C7.89453 19.5055 8.38869 19.9996 8.99822 19.9996C9.60779 19.9996 10.1019 19.5055 10.1019 18.8959Z" fill="url(#paint6_linear_202_14574)"/>
<path d="M10.1019 18.8959V16.0127H7.89453V18.8959C7.89453 19.5055 8.38869 19.9996 8.99822 19.9996C9.60779 19.9996 10.1019 19.5055 10.1019 18.8959Z" fill="url(#paint7_linear_202_14574)"/>
<path d="M10.1019 18.8959V16.0127H7.89453V18.8959C7.89453 19.5055 8.38869 19.9996 8.99822 19.9996C9.60779 19.9996 10.1019 19.5055 10.1019 18.8959Z" fill="url(#paint8_linear_202_14574)"/>
<path d="M9.91451 17.8251H8.0818C5.77078 17.8251 3.89062 15.945 3.89062 13.6339V12.889C3.89062 12.7265 4.02231 12.5948 4.18474 12.5948C4.34717 12.5948 4.47886 12.7265 4.47886 12.889V13.6339C4.47886 15.6206 6.09513 17.2369 8.0818 17.2369H9.91451C11.9012 17.2369 13.5174 15.6206 13.5174 13.6339V12.889C13.5174 12.7265 13.6491 12.5948 13.8116 12.5948C13.974 12.5948 14.1057 12.7265 14.1057 12.889V13.6339C14.1057 15.9449 12.2255 17.8251 9.91451 17.8251Z" fill="url(#paint9_linear_202_14574)"/>
<path d="M5.6875 7.25586H12.3072V14.0763H5.6875V7.25586Z" fill="url(#paint10_linear_202_14574)"/>
<path d="M5.6875 7.25586H12.3072V14.0763H5.6875V7.25586Z" fill="url(#paint11_linear_202_14574)"/>
<path d="M5.6875 7.84863H12.3073V8.86424H5.6875V7.84863Z" fill="url(#paint12_linear_202_14574)"/>
<path d="M5.6875 9.85339H12.3073V10.869H5.6875V9.85339Z" fill="url(#paint13_linear_202_14574)"/>
<path d="M5.6875 11.9688H12.3073V12.9844H5.6875V11.9688Z" fill="url(#paint14_linear_202_14574)"/>
<path d="M10.994 13.295C10.6753 13.295 10.4182 13.0309 10.4296 12.7096C10.4405 12.4036 10.7013 12.1655 11.0076 12.1655H12.2537C12.2981 12.1655 12.3421 12.1567 12.3831 12.1397C12.4241 12.1227 12.4614 12.0978 12.4928 12.0664C12.5242 12.035 12.5491 11.9977 12.5661 11.9567C12.5831 11.9157 12.5919 11.8717 12.5919 11.8273V11.5692C12.5919 11.5248 12.5831 11.4809 12.5661 11.4398C12.5491 11.3988 12.5242 11.3615 12.4928 11.3301C12.4614 11.2987 12.4241 11.2738 12.3831 11.2568C12.3421 11.2398 12.2981 11.231 12.2537 11.231H10.994C10.6821 11.231 10.4292 10.9782 10.4292 10.6663C10.4292 10.3543 10.6821 10.1015 10.994 10.1015H12.2537C12.2981 10.1015 12.3421 10.0927 12.3831 10.0757C12.4241 10.0587 12.4614 10.0338 12.4928 10.0024C12.5242 9.97102 12.5491 9.93373 12.5661 9.8927C12.5831 9.85167 12.5919 9.80769 12.5919 9.76328V9.50524C12.5919 9.46083 12.5831 9.41685 12.5661 9.37582C12.5491 9.33479 12.5242 9.29751 12.4928 9.2661C12.4614 9.2347 12.4241 9.20979 12.3831 9.19279C12.3421 9.17579 12.2981 9.16705 12.2537 9.16705H10.994C10.6821 9.16705 10.4292 8.91418 10.4292 8.60226C10.4292 8.29034 10.6821 8.03748 10.994 8.03748H12.2537C12.2981 8.03748 12.3421 8.02873 12.3831 8.01173C12.4241 7.99474 12.4614 7.96983 12.4928 7.93842C12.5242 7.90702 12.5491 7.86974 12.5661 7.8287C12.5831 7.78767 12.5919 7.74369 12.5919 7.69928C12.5919 6.12822 11.3183 4.85461 9.74721 4.85461H8.24701C6.67595 4.85461 5.40234 6.12822 5.40234 7.69928C5.40234 7.78898 5.43798 7.875 5.5014 7.93842C5.56482 8.00185 5.65084 8.03748 5.74054 8.03748H7.00019C7.31211 8.03748 7.56497 8.29034 7.56497 8.60226C7.56497 8.91418 7.31211 9.16705 7.00019 9.16705H5.74054C5.65084 9.16705 5.56482 9.20268 5.5014 9.2661C5.43798 9.32953 5.40234 9.41555 5.40234 9.50524V9.76328C5.40234 9.85298 5.43798 9.939 5.5014 10.0024C5.56482 10.0658 5.65084 10.1015 5.74054 10.1015H7.00019C7.31211 10.1015 7.56497 10.3543 7.56497 10.6663C7.56497 10.9782 7.31211 11.231 7.00019 11.231H5.74054C5.65084 11.231 5.56482 11.2667 5.5014 11.3301C5.43798 11.3935 5.40234 11.4795 5.40234 11.5692V11.8273C5.40234 11.917 5.43798 12.003 5.5014 12.0664C5.56482 12.1298 5.65084 12.1655 5.74054 12.1655H6.98666C7.29289 12.1655 7.55372 12.4036 7.56458 12.7096C7.57599 13.0309 7.31893 13.295 7.00019 13.295H5.74054C5.65084 13.295 5.56482 13.3306 5.5014 13.3941C5.43798 13.4575 5.40234 13.5435 5.40234 13.6332C5.40234 15.2043 6.67595 16.4779 8.24701 16.4779H9.74721C11.3183 16.4779 12.5919 15.2043 12.5919 13.6332C12.5919 13.5888 12.5831 13.5448 12.5661 13.5038C12.5491 13.4627 12.5242 13.4255 12.4928 13.3941C12.4614 13.3627 12.4241 13.3377 12.3831 13.3208C12.3421 13.3038 12.2981 13.295 12.2537 13.295H10.994Z" fill="url(#paint15_linear_202_14574)"/>
<path d="M8.3125 13.6596V11.6834C8.3125 11.3044 8.61979 10.9971 8.99885 10.9971C9.37791 10.9971 9.68521 11.3044 9.68521 11.6834V13.6596C9.68521 14.0386 9.37791 14.3459 8.99885 14.3459C8.61979 14.3459 8.3125 14.0386 8.3125 13.6596Z" fill="url(#paint16_linear_202_14574)"/>
<path d="M8.3125 9.64969V7.67354C8.3125 7.29448 8.61979 6.98718 8.99885 6.98718C9.37791 6.98718 9.68521 7.29448 9.68521 7.67354V9.64969C9.68521 10.0288 9.37791 10.336 8.99885 10.336C8.61979 10.336 8.3125 10.0288 8.3125 9.64969Z" fill="url(#paint17_linear_202_14574)"/>
<path d="M7.00019 13.2947H5.74054C5.65084 13.2947 5.56482 13.3303 5.5014 13.3937C5.43797 13.4571 5.40234 13.5432 5.40234 13.6329C5.40234 15.2039 6.67595 16.4775 8.24701 16.4775H9.74721C11.3183 16.4775 12.5919 15.2039 12.5919 13.6329C12.5919 13.5432 12.5562 13.4571 12.4928 13.3937C12.4294 13.3303 12.3434 13.2947 12.2537 13.2947H10.994C10.839 13.2947 10.699 13.2319 10.5969 13.1309H7.39729C7.2918 13.2358 7.14901 13.2947 7.00019 13.2947Z" fill="url(#paint18_linear_202_14574)"/>
<defs>
<linearGradient id="paint0_linear_202_14574" x1="2.66255" y1="2.61573" x2="15.3265" y2="15.2797" gradientUnits="userSpaceOnUse">
<stop stop-color="#9D66D6"/>
<stop offset="1" stop-color="#453D81"/>
</linearGradient>
<linearGradient id="paint1_linear_202_14574" x1="5.14081" y1="5.09308" x2="12.8559" y2="12.8081" gradientUnits="userSpaceOnUse">
<stop stop-color="#9D66D6"/>
<stop offset="1" stop-color="#453D81"/>
</linearGradient>
<linearGradient id="paint2_linear_202_14574" x1="1.74682" y1="10.451" x2="1.74682" y2="14.5101" gradientUnits="userSpaceOnUse">
<stop stop-color="#453D81" stop-opacity="0"/>
<stop offset="1" stop-color="#453D81"/>
</linearGradient>
<linearGradient id="paint3_linear_202_14574" x1="16.2469" y1="10.4511" x2="16.2469" y2="14.5101" gradientUnits="userSpaceOnUse">
<stop stop-color="#453D81" stop-opacity="0"/>
<stop offset="1" stop-color="#453D81"/>
</linearGradient>
<linearGradient id="paint4_linear_202_14574" x1="13.8987" y1="9.69198" x2="12.6816" y2="9.69198" gradientUnits="userSpaceOnUse">
<stop stop-color="#453D81" stop-opacity="0"/>
<stop offset="1" stop-color="#453D81"/>
</linearGradient>
<linearGradient id="paint5_linear_202_14574" x1="8.99788" y1="9.88197" x2="8.99788" y2="12.574" gradientUnits="userSpaceOnUse">
<stop stop-color="#453D81" stop-opacity="0"/>
<stop offset="1" stop-color="#453D81"/>
</linearGradient>
<linearGradient id="paint6_linear_202_14574" x1="6.82175" y1="18.0061" x2="12.079" y2="18.0061" gradientUnits="userSpaceOnUse">
<stop stop-color="#5A5A5A"/>
<stop offset="1" stop-color="#464646"/>
</linearGradient>
<linearGradient id="paint7_linear_202_14574" x1="8.99822" y1="18.9903" x2="8.99822" y2="16.6577" gradientUnits="userSpaceOnUse">
<stop stop-color="#464646" stop-opacity="0"/>
<stop offset="1" stop-color="#202020"/>
</linearGradient>
<linearGradient id="paint8_linear_202_14574" x1="8.31194" y1="18.0061" x2="10.1773" y2="18.0061" gradientUnits="userSpaceOnUse">
<stop stop-color="#464646" stop-opacity="0"/>
<stop offset="1" stop-color="#202020"/>
</linearGradient>
<linearGradient id="paint9_linear_202_14574" x1="8.99815" y1="12.5948" x2="8.99815" y2="17.8251" gradientUnits="userSpaceOnUse">
<stop stop-color="#EEF4FF"/>
<stop offset="1" stop-color="#CFE7FD"/>
</linearGradient>
<linearGradient id="paint10_linear_202_14574" x1="3.38609" y1="10.6661" x2="13.5778" y2="10.6661" gradientUnits="userSpaceOnUse">
<stop stop-color="#EEF4FF"/>
<stop offset="1" stop-color="#CFE7FD"/>
</linearGradient>
<linearGradient id="paint11_linear_202_14574" x1="6.33064" y1="7.99935" x2="11.7857" y2="13.4544" gradientUnits="userSpaceOnUse">
<stop stop-color="#8AAADC" stop-opacity="0"/>
<stop offset="1" stop-color="#8AAADC"/>
</linearGradient>
<linearGradient id="paint12_linear_202_14574" x1="8.99738" y1="8.87652" x2="8.99738" y2="7.9662" gradientUnits="userSpaceOnUse">
<stop stop-color="#8AAADC" stop-opacity="0"/>
<stop offset="1" stop-color="#8AAADC"/>
</linearGradient>
<linearGradient id="paint13_linear_202_14574" x1="8.99738" y1="10.8506" x2="8.99738" y2="9.87261" gradientUnits="userSpaceOnUse">
<stop stop-color="#8AAADC" stop-opacity="0"/>
<stop offset="1" stop-color="#8AAADC"/>
</linearGradient>
<linearGradient id="paint14_linear_202_14574" x1="8.99738" y1="12.9353" x2="8.99738" y2="12.2605" gradientUnits="userSpaceOnUse">
<stop stop-color="#8AAADC" stop-opacity="0"/>
<stop offset="1" stop-color="#8AAADC"/>
</linearGradient>
<linearGradient id="paint15_linear_202_14574" x1="5.64991" y1="7.31905" x2="11.4805" y2="13.1497" gradientUnits="userSpaceOnUse">
<stop stop-color="#EEF4FF"/>
<stop offset="1" stop-color="#CFE7FD"/>
</linearGradient>
<linearGradient id="paint16_linear_202_14574" x1="9.88168" y1="12.6715" x2="8.36948" y2="12.6715" gradientUnits="userSpaceOnUse">
<stop stop-color="#EEF4FF"/>
<stop offset="1" stop-color="#CFE7FD"/>
</linearGradient>
<linearGradient id="paint17_linear_202_14574" x1="9.88168" y1="8.66161" x2="8.36948" y2="8.66161" gradientUnits="userSpaceOnUse">
<stop stop-color="#EEF4FF"/>
<stop offset="1" stop-color="#CFE7FD"/>
</linearGradient>
<linearGradient id="paint18_linear_202_14574" x1="8.99709" y1="13.8665" x2="8.99709" y2="15.8175" gradientUnits="userSpaceOnUse">
<stop stop-color="#8AAADC" stop-opacity="0"/>
<stop offset="1" stop-color="#8AAADC"/>
</linearGradient>
</defs>
</svg>
