<svg width="23" height="24" viewBox="0 0 23 24" fill="none" xmlns="http://www.w3.org/2000/svg">
<path d="M11.5 21.3438C16.6604 21.3438 20.8438 17.1604 20.8438 12C20.8438 6.83959 16.6604 2.65625 11.5 2.65625C6.33959 2.65625 2.15625 6.83959 2.15625 12C2.15625 17.1604 6.33959 21.3438 11.5 21.3438Z" fill="#FFB137"/>
<path d="M11.5 19.5469C15.668 19.5469 19.0469 16.168 19.0469 12C19.0469 7.83198 15.668 4.45312 11.5 4.45312C7.33198 4.45312 3.95312 7.83198 3.95312 12C3.95312 16.168 7.33198 19.5469 11.5 19.5469Z" fill="#FFF792"/>
<path fill-rule="evenodd" clip-rule="evenodd" d="M11.332 8.1367C11.3449 8.10249 11.3679 8.07302 11.3979 8.05221C11.428 8.03141 11.4637 8.02026 11.5002 8.02026C11.5368 8.02026 11.5724 8.03141 11.6025 8.05221C11.6325 8.07302 11.6555 8.10249 11.6684 8.1367L13.0534 11.8336C13.0633 11.8601 13.0793 11.8839 13.1002 11.9031C13.121 11.9222 13.146 11.9362 13.1733 11.9438C13.2006 11.9515 13.2292 11.9526 13.257 11.947C13.2847 11.9415 13.3108 11.9295 13.333 11.9119L15.7189 10.0346C15.749 10.0108 15.7859 9.99734 15.8243 9.99609C15.8626 9.99484 15.9003 10.0059 15.9319 10.0276C15.9635 10.0493 15.9873 10.0806 15.9999 10.1168C16.0125 10.1531 16.0131 10.1924 16.0017 10.229L14.1581 16.186C14.1467 16.2226 14.1239 16.2547 14.093 16.2774C14.0621 16.3002 14.0247 16.3125 13.9864 16.3125H9.01405C8.97567 16.3125 8.9383 16.3002 8.9074 16.2774C8.8765 16.2547 8.85368 16.2226 8.84226 16.186L6.99867 10.229C6.98782 10.1924 6.98883 10.1534 7.00154 10.1175C7.01425 10.0815 7.03801 10.0506 7.06942 10.029C7.10083 10.0074 7.13827 9.9963 7.17637 9.9973C7.21447 9.9983 7.25127 10.0113 7.2815 10.0346L9.66739 11.9119C9.6897 11.9292 9.71574 11.9411 9.74344 11.9465C9.77114 11.9519 9.79972 11.9507 9.8269 11.9431C9.85408 11.9355 9.87909 11.9216 9.89995 11.9026C9.9208 11.8836 9.93691 11.86 9.94698 11.8336L11.332 8.1367Z" fill="#FFB137"/>
</svg>
