<svg width="34" height="34" viewBox="0 0 34 34" fill="none" xmlns="http://www.w3.org/2000/svg">
<g filter="url(#filter0_d_137_31680)">
<circle cx="17" cy="17" r="11" fill="#FC0343"/>
<circle cx="17" cy="17" r="11" stroke="#EBF1FF"/>
</g>
<g clip-path="url(#clip0_137_31680)">
<path d="M22.8695 22.1625L20.885 20.178C21.6983 19.1833 22.0982 17.9141 22.0019 16.6328C21.9057 15.3515 21.3206 14.1563 20.3678 13.2943C19.415 12.4323 18.1673 11.9695 16.8828 12.0016C15.5983 12.0337 14.3754 12.5583 13.4668 13.4668C12.5583 14.3754 12.0337 15.5983 12.0016 16.8828C11.9695 18.1673 12.4323 19.415 13.2943 20.3678C14.1563 21.3206 15.3515 21.9057 16.6328 22.0019C17.9141 22.0982 19.1833 21.6983 20.178 20.885L22.1625 22.8695C22.2568 22.9606 22.3831 23.011 22.5142 23.0098C22.6453 23.0087 22.7707 22.9561 22.8634 22.8634C22.9561 22.7707 23.0087 22.6453 23.0098 22.5142C23.011 22.3831 22.9606 22.2568 22.8695 22.1625ZM17.016 21.016C16.2249 21.016 15.4515 20.7814 14.7937 20.3419C14.1359 19.9024 13.6232 19.2776 13.3205 18.5467C13.0177 17.8158 12.9385 17.0116 13.0929 16.2356C13.2472 15.4597 13.6282 14.747 14.1876 14.1876C14.747 13.6282 15.4597 13.2472 16.2356 13.0929C17.0116 12.9385 17.8158 13.0177 18.5467 13.3205C19.2776 13.6232 19.9024 14.1359 20.3419 14.7937C20.7814 15.4515 21.016 16.2249 21.016 17.016C21.0148 18.0765 20.593 19.0932 19.8431 19.8431C19.0932 20.593 18.0765 21.0148 17.016 21.016Z" fill="white"/>
<path d="M18.5156 16.516H17.5156V15.516C17.5156 15.3834 17.4629 15.2562 17.3692 15.1624C17.2754 15.0687 17.1482 15.016 17.0156 15.016C16.883 15.016 16.7558 15.0687 16.6621 15.1624C16.5683 15.2562 16.5156 15.3834 16.5156 15.516V16.516H15.5156C15.383 16.516 15.2558 16.5687 15.1621 16.6624C15.0683 16.7562 15.0156 16.8834 15.0156 17.016C15.0156 17.1486 15.0683 17.2758 15.1621 17.3695C15.2558 17.4633 15.383 17.516 15.5156 17.516H16.5156V18.516C16.5156 18.6486 16.5683 18.7758 16.6621 18.8695C16.7558 18.9633 16.883 19.016 17.0156 19.016C17.1482 19.016 17.2754 18.9633 17.3692 18.8695C17.4629 18.7758 17.5156 18.6486 17.5156 18.516V17.516H18.5156C18.6482 17.516 18.7754 17.4633 18.8692 17.3695C18.9629 17.2758 19.0156 17.1486 19.0156 17.016C19.0156 16.8834 18.9629 16.7562 18.8692 16.6624C18.7754 16.5687 18.6482 16.516 18.5156 16.516Z" fill="white"/>
</g>
<defs>
<filter id="filter0_d_137_31680" x="0.5" y="0.5" width="33" height="33" filterUnits="userSpaceOnUse" color-interpolation-filters="sRGB">
<feFlood flood-opacity="0" result="BackgroundImageFix"/>
<feColorMatrix in="SourceAlpha" type="matrix" values="0 0 0 0 0 0 0 0 0 0 0 0 0 0 0 0 0 0 127 0" result="hardAlpha"/>
<feOffset/>
<feGaussianBlur stdDeviation="2.5"/>
<feColorMatrix type="matrix" values="0 0 0 0 0.14902 0 0 0 0 0.2 0 0 0 0 0.301961 0 0 0 0.05 0"/>
<feBlend mode="normal" in2="BackgroundImageFix" result="effect1_dropShadow_137_31680"/>
<feBlend mode="normal" in="SourceGraphic" in2="effect1_dropShadow_137_31680" result="shape"/>
</filter>
<clipPath id="clip0_137_31680">
<rect width="12" height="12" fill="white" transform="translate(12 12)"/>
</clipPath>
</defs>
</svg>
