<svg width="48" height="48" viewBox="0 0 48 48" fill="none" xmlns="http://www.w3.org/2000/svg">
<g filter="url(#filter0_d_157_93033)">
<path d="M6 24C6 14.0589 14.0589 6 24 6C33.9411 6 42 14.0589 42 24C42 33.9411 33.9411 42 24 42C14.0589 42 6 33.9411 6 24Z" fill="white"/>
<path d="M6 24C6 14.0589 14.0589 6 24 6C33.9411 6 42 14.0589 42 24C42 33.9411 33.9411 42 24 42C14.0589 42 6 33.9411 6 24Z" stroke="#EBF1FF"/>
<mask id="mask0_157_93033" style="mask-type:alpha" maskUnits="userSpaceOnUse" x="12" y="12" width="24" height="24">
<rect x="12" y="12" width="24" height="24" fill="#D9D9D9"/>
</mask>
<g mask="url(#mask0_157_93033)">
<path d="M19.3657 24L23.6059 28.2462C23.6996 28.3397 23.7506 28.4535 23.7589 28.5875C23.7673 28.7215 23.7163 28.8435 23.6059 28.9537C23.4996 29.0602 23.3817 29.1135 23.2522 29.1135C23.1227 29.1135 23.0048 29.0602 22.8984 28.9537L18.5099 24.5655C18.4228 24.4781 18.3615 24.389 18.3262 24.298C18.291 24.207 18.2734 24.1076 18.2734 24C18.2734 23.8923 18.291 23.793 18.3262 23.702C18.3615 23.611 18.4228 23.5218 18.5099 23.4345L22.8984 19.0462C22.9919 18.9525 23.1057 18.9015 23.2397 18.8932C23.3737 18.8849 23.4958 18.9359 23.6059 19.0462C23.7124 19.1525 23.7657 19.2705 23.7657 19.4C23.7657 19.5295 23.7124 19.6474 23.6059 19.7537L19.3657 24ZM25.4657 24L29.7059 28.2462C29.7996 28.3397 29.8506 28.4535 29.8589 28.5875C29.8673 28.7215 29.8163 28.8435 29.7059 28.9537C29.5996 29.0602 29.4817 29.1135 29.3522 29.1135C29.2227 29.1135 29.1048 29.0602 28.9984 28.9537L24.6099 24.5655C24.5228 24.4781 24.4615 24.389 24.4262 24.298C24.391 24.207 24.3734 24.1076 24.3734 24C24.3734 23.8923 24.391 23.793 24.4262 23.702C24.4615 23.611 24.5228 23.5218 24.6099 23.4345L28.9984 19.0462C29.0919 18.9525 29.2057 18.9015 29.3397 18.8932C29.4737 18.8849 29.5958 18.9359 29.7059 19.0462C29.8124 19.1525 29.8657 19.2705 29.8657 19.4C29.8657 19.5295 29.8124 19.6474 29.7059 19.7537L25.4657 24Z" fill="#FC0343"/>
</g>
</g>
<defs>
<filter id="filter0_d_157_93033" x="0.5" y="0.5" width="47" height="47" filterUnits="userSpaceOnUse" color-interpolation-filters="sRGB">
<feFlood flood-opacity="0" result="BackgroundImageFix"/>
<feColorMatrix in="SourceAlpha" type="matrix" values="0 0 0 0 0 0 0 0 0 0 0 0 0 0 0 0 0 0 127 0" result="hardAlpha"/>
<feOffset/>
<feGaussianBlur stdDeviation="2.5"/>
<feColorMatrix type="matrix" values="0 0 0 0 0.14902 0 0 0 0 0.2 0 0 0 0 0.301961 0 0 0 0.05 0"/>
<feBlend mode="normal" in2="BackgroundImageFix" result="effect1_dropShadow_157_93033"/>
<feBlend mode="normal" in="SourceGraphic" in2="effect1_dropShadow_157_93033" result="shape"/>
</filter>
</defs>
</svg>
