<svg width="13" height="12" viewBox="0 0 13 12" fill="none" xmlns="http://www.w3.org/2000/svg">
<path d="M8.82656 5.99995L12.7016 9.89995C12.8849 10.0833 12.9807 10.3125 12.9891 10.5875C12.9974 10.8625 12.9016 11.1 12.7016 11.3C12.5182 11.4833 12.2849 11.575 12.0016 11.575C11.7182 11.575 11.4849 11.4833 11.3016 11.3L7.42656 7.42495C7.04323 7.04162 6.85156 6.56662 6.85156 5.99995C6.85156 5.43328 7.04323 4.95828 7.42656 4.57495L11.3016 0.699951C11.4849 0.516618 11.7141 0.420784 11.9891 0.412451C12.2641 0.404118 12.5016 0.499951 12.7016 0.699951C12.8849 0.883285 12.9766 1.11662 12.9766 1.39995C12.9766 1.68328 12.8849 1.91662 12.7016 2.09995L8.82656 5.99995ZM2.82656 5.99995L6.70156 9.89995C6.8849 10.0833 6.98073 10.3125 6.98906 10.5875C6.9974 10.8625 6.90156 11.1 6.70156 11.3C6.51823 11.4833 6.2849 11.575 6.00156 11.575C5.71823 11.575 5.4849 11.4833 5.30156 11.3L1.42656 7.42495C1.04323 7.04162 0.851563 6.56662 0.851563 5.99995C0.851563 5.43328 1.04323 4.95828 1.42656 4.57495L5.30156 0.699951C5.4849 0.516618 5.71406 0.420784 5.98906 0.412451C6.26406 0.404118 6.50156 0.499951 6.70156 0.699951C6.8849 0.883285 6.97656 1.11662 6.97656 1.39995C6.97656 1.68328 6.8849 1.91662 6.70156 2.09995L2.82656 5.99995Z" fill="#FC0343"/>
</svg>
