<svg width="24" height="24" viewBox="0 0 24 24" fill="none" xmlns="http://www.w3.org/2000/svg">
<path d="M9.74189 12.9677H2.96773C2.43324 12.9677 2 12.5344 2 12V2.96771C2 2.43323 2.43324 1.99999 2.96773 1.99999H12C12.5345 1.99999 12.9677 2.43323 12.9677 2.96771V9.74188" stroke="#242C43" stroke-miterlimit="10" stroke-linecap="round" stroke-linejoin="round"/>
<path d="M18.4526 11.0323H21.0332C21.5677 11.0323 22.0009 11.4656 22.0009 12V21.0323C22.0009 21.5668 21.5677 22 21.0332 22H12.0009C11.4665 22 11.0332 21.5668 11.0332 21.0323V12C11.0332 11.4656 11.4665 11.0323 12.0009 11.0323H17.1623" stroke="#242C43" stroke-miterlimit="10" stroke-linecap="round" stroke-linejoin="round"/>
<path d="M14.2246 19.4199L16.4049 13.6953C16.4495 13.5863 16.6037 13.5862 16.6484 13.695L18.8089 19.4199" stroke="#FC0343" stroke-miterlimit="10" stroke-linecap="round" stroke-linejoin="round"/>
<path d="M14.9043 17.9941H18.1396" stroke="#FC0343" stroke-miterlimit="10" stroke-linecap="round" stroke-linejoin="round"/>
<path d="M9.09728 18.4512H7.8069C6.55977 18.4512 5.54883 17.4402 5.54883 16.1931V14.2577" stroke="#242C43" stroke-miterlimit="10" stroke-linecap="round" stroke-linejoin="round"/>
<path d="M8.45117 17.4844L9.74147 18.4522L8.45117 19.4199" stroke="#242C43" stroke-miterlimit="10" stroke-linecap="round" stroke-linejoin="round"/>
<path d="M14.9023 5.54875H16.1927C17.4398 5.54875 18.4508 6.55973 18.4508 7.80682V9.74219" stroke="#242C43" stroke-miterlimit="10" stroke-linecap="round" stroke-linejoin="round"/>
<path d="M15.5481 6.5166L14.2578 5.54888L15.5481 4.58111" stroke="#242C43" stroke-miterlimit="10" stroke-linecap="round" stroke-linejoin="round"/>
<path d="M7.42416 9.91042C6.85369 9.91042 6.42467 9.79911 6.13712 9.57649C5.8542 9.34922 5.71274 9.07095 5.71274 8.74165C5.71274 8.39844 5.84493 8.12016 6.10929 7.90681L5.55969 7.91377V7.2946H7.0137C7.0879 7.2575 7.1482 7.21112 7.19458 7.15546C7.24096 7.09981 7.26415 7.03719 7.26415 6.96762C7.26415 6.88878 7.23632 6.81225 7.18066 6.73804H5.55273V5.98669H7.63982C7.89028 5.98669 8.06652 5.97742 8.16855 5.95886C8.27059 5.94031 8.3448 5.91248 8.39118 5.87538C8.45147 5.83364 8.49089 5.78726 8.50944 5.73624C8.53263 5.68059 8.54423 5.61797 8.54423 5.5484C8.54423 5.40926 8.50944 5.27476 8.43988 5.1449C8.37494 5.01504 8.27523 4.87821 8.14073 4.73444C8.5162 4.50676 9.03448 4.57465 9.21099 4.97673C9.2215 5.00066 9.23114 5.02425 9.23993 5.0475C9.32341 5.25157 9.36515 5.4626 9.36515 5.68059C9.36515 5.78262 9.3466 5.90321 9.3095 6.04235C9.27239 6.18149 9.19355 6.30671 9.07296 6.41802C8.95237 6.52006 8.80628 6.59659 8.63467 6.6476C8.4677 6.69862 8.24044 6.72877 7.95289 6.73804C7.99927 6.82617 8.02246 6.90501 8.02246 6.97458C8.02246 7.04415 8.01318 7.10444 7.99463 7.15546C7.98072 7.20648 7.95984 7.25286 7.93202 7.2946H9.33037V7.91377L8.76685 7.90681C9.04977 8.10625 9.19123 8.37989 9.19123 8.72774C9.19123 8.95036 9.12861 9.15211 9.00339 9.33299C8.8828 9.50923 8.69033 9.65069 8.42596 9.75737C8.16623 9.8594 7.8323 9.91042 7.42416 9.91042ZM7.45199 9.16602C7.77664 9.16602 8.00622 9.10341 8.14073 8.97819C8.27986 8.84832 8.34943 8.69527 8.34943 8.51903C8.34943 8.31496 8.27291 8.15263 8.11985 8.03204C7.97144 7.91145 7.74882 7.85116 7.45199 7.85116C7.14588 7.85116 6.91862 7.91377 6.7702 8.039C6.62179 8.16422 6.54758 8.32423 6.54758 8.51903C6.54758 8.71382 6.62179 8.87151 6.7702 8.9921C6.91862 9.10805 7.14588 9.16602 7.45199 9.16602Z" fill="#8E121E"/>
</svg>
