<svg width="17" height="17" viewBox="0 0 17 17" fill="none" xmlns="http://www.w3.org/2000/svg">
<path d="M8 10.577L13.577 7L8 3.423V10.577ZM4.6155 14C4.15517 14 3.77083 13.8458 3.4625 13.5375C3.15417 13.2292 3 12.8448 3 12.3845V1.6155C3 1.15517 3.15417 0.770833 3.4625 0.4625C3.77083 0.154167 4.15517 0 4.6155 0H15.3845C15.8448 0 16.2292 0.154167 16.5375 0.4625C16.8458 0.770833 17 1.15517 17 1.6155V12.3845C17 12.8448 16.8458 13.2292 16.5375 13.5375C16.2292 13.8458 15.8448 14 15.3845 14H4.6155ZM4.6155 13H15.3845C15.5385 13 15.6796 12.9359 15.8077 12.8077C15.9359 12.6796 16 12.5385 16 12.3845V1.6155C16 1.4615 15.9359 1.32042 15.8077 1.19225C15.6796 1.06408 15.5385 1 15.3845 1H4.6155C4.4615 1 4.32042 1.06408 4.19225 1.19225C4.06408 1.32042 4 1.4615 4 1.6155V12.3845C4 12.5385 4.06408 12.6796 4.19225 12.8077C4.32042 12.9359 4.4615 13 4.6155 13ZM1.6155 17C1.15517 17 0.770833 16.8458 0.4625 16.5375C0.154167 16.2292 0 15.8449 0 15.3848V3.6155H1V15.3848C1 15.5386 1.06408 15.6796 1.19225 15.8077C1.32042 15.9359 1.4615 16 1.6155 16H13.3845V17H1.6155Z" fill="#FC0544"/>
</svg>
